<svg width="18" height="18" viewBox="0 0 18 18" fill="none" xmlns="http://www.w3.org/2000/svg">
<path d="M12.5999 7.19999H5.3999V5.39999C5.3999 3.41159 7.0115 1.79999 8.9999 1.79999C10.9883 1.79999 12.5999 3.41159 12.5999 5.39999V7.19999Z" stroke="black" stroke-width="2" stroke-miterlimit="10" stroke-linecap="round" stroke-linejoin="round"/>
<path d="M14.3999 6.59998H3.5999C2.9369 6.59998 2.3999 7.13698 2.3999 7.79998V15C2.3999 15.663 2.9369 16.2 3.5999 16.2H14.3999C15.0629 16.2 15.5999 15.663 15.5999 15V7.79998C15.5999 7.13698 15.0629 6.59998 14.3999 6.59998ZM8.9999 12.6C8.3369 12.6 7.7999 12.0624 7.7999 11.4C7.7999 10.737 8.3369 10.2 8.9999 10.2C9.6629 10.2 10.1999 10.737 10.1999 11.4C10.1999 12.0624 9.6629 12.6 8.9999 12.6ZM12.5999 12.6C11.9369 12.6 11.3999 12.0624 11.3999 11.4C11.3999 10.737 11.9369 10.2 12.5999 10.2C13.2629 10.2 13.7999 10.737 13.7999 11.4C13.7999 12.0624 13.2629 12.6 12.5999 12.6ZM5.3999 12.6C4.7369 12.6 4.1999 12.0624 4.1999 11.4C4.1999 10.737 4.7369 10.2 5.3999 10.2C6.0629 10.2 6.5999 10.737 6.5999 11.4C6.5999 12.0624 6.0629 12.6 5.3999 12.6Z" fill="black"/>
</svg>
