<svg width="18" height="18" viewBox="0 0 18 18" fill="none" xmlns="http://www.w3.org/2000/svg">
<path d="M12.7349 10.7334C12.4913 10.5906 12.1919 10.5936 11.9495 10.7376L10.7219 11.469C10.4471 11.6328 10.1039 11.6136 9.85191 11.4168C9.41631 11.0766 8.71491 10.5042 8.10471 9.89401C7.49451 9.28381 6.92211 8.58241 6.58191 8.14681C6.38511 7.89481 6.36591 7.55161 6.52971 7.27681L7.26111 6.04921C7.40571 5.80681 7.40691 5.50501 7.26411 5.26141L5.46291 2.18461C5.28831 1.88701 4.94151 1.74061 4.60611 1.82281C4.28031 1.90201 3.85731 2.09521 3.41391 2.53921C2.02551 3.92761 1.28811 6.26941 6.50931 11.4906C11.7305 16.7118 14.0717 15.975 15.4607 14.586C15.9053 14.1414 16.0979 13.7178 16.1777 13.3914C16.2587 13.0566 16.1147 12.7122 15.8177 12.5382C15.0761 12.1044 13.4765 11.1678 12.7349 10.7334Z" fill="black"/>
</svg>
