<svg width="18" height="18" viewBox="0 0 18 18" fill="none" xmlns="http://www.w3.org/2000/svg">
<path d="M10.8 11.4V10.2C11.07 10.0662 11.8422 9.147 11.9232 8.4288C12.1356 8.4126 12.4692 8.2176 12.5676 7.4478C12.6204 7.0344 12.4104 6.8022 12.2832 6.729C12.2832 6.729 12.6 6.1272 12.6 5.4006C12.6 3.9438 12.0282 2.7006 10.8 2.7006C10.8 2.7006 10.3734 1.8006 9.00005 1.8006C6.45485 1.8006 5.40005 3.4332 5.40005 5.4006C5.40005 6.063 5.71685 6.729 5.71685 6.729C5.58965 6.8022 5.37965 7.035 5.43245 7.4478C5.53085 8.2176 5.86445 8.4126 6.07685 8.4288C6.15785 9.147 6.93005 10.0662 7.20005 10.2V11.4C6.60005 13.2 1.80005 12 1.80005 16.2H16.2C16.2 12 11.4 13.2 10.8 11.4Z" fill="black"/>
</svg>
