<svg width="41" height="41" viewBox="0 0 41 41" fill="none" xmlns="http://www.w3.org/2000/svg">
<path d="M20.5001 3.41666C11.065 3.41666 3.41675 11.0649 3.41675 20.5C3.41675 29.9351 11.065 37.5833 20.5001 37.5833C29.9352 37.5833 37.5834 29.9351 37.5834 20.5C37.5834 11.0649 29.9352 3.41666 20.5001 3.41666Z" fill="url(#paint0_linear_246_112)"/>
<path d="M22.8123 25.0279H27.2335L27.9279 20.5367H22.8123V18.0819C22.8123 16.2164 23.4222 14.5618 25.1673 14.5618H27.9715V10.6429C27.4786 10.5763 26.4366 10.4311 24.4677 10.4311C20.3557 10.4311 17.9453 12.6024 17.9453 17.5497V20.5376H13.718V25.0288H17.9444V37.3732C18.7815 37.4979 19.6297 37.5833 20.5001 37.5833C21.2868 37.5833 22.0547 37.5116 22.8123 37.4091V25.0279Z" fill="white"/>
<defs>
<linearGradient id="paint0_linear_246_112" x1="8.53577" y1="8.53568" x2="34.6921" y2="34.692" gradientUnits="userSpaceOnUse">
<stop stop-color="#2AA4F4"/>
<stop offset="1" stop-color="#007AD9"/>
</linearGradient>
</defs>
</svg>
