<svg width="41" height="41" viewBox="0 0 41 41" fill="none" xmlns="http://www.w3.org/2000/svg">
<path d="M20.5001 3.41666C15.9693 3.41666 11.6241 5.2165 8.42034 8.42025C5.21659 11.624 3.41675 15.9692 3.41675 20.5C3.41675 25.0308 5.21659 29.376 8.42034 32.5797C11.6241 35.7835 15.9693 37.5833 20.5001 37.5833C25.0309 37.5833 29.3761 35.7835 32.5798 32.5797C35.7836 29.376 37.5834 25.0308 37.5834 20.5C37.5834 15.9692 35.7836 11.624 32.5798 8.42025C29.3761 5.2165 25.0309 3.41666 20.5001 3.41666V3.41666Z" fill="#0288D1"/>
<path d="M11.9583 16.2292H15.3749V29.0417H11.9583V16.2292ZM13.6563 14.5208H13.6375C12.6177 14.5208 11.9583 13.7606 11.9583 12.8116C11.9583 11.8422 12.6382 11.1042 13.676 11.1042C14.7155 11.1042 15.3553 11.8422 15.3749 12.8116C15.3749 13.7606 14.7155 14.5208 13.6563 14.5208ZM29.8958 20.9271C29.8958 18.3321 27.7928 16.2292 25.1978 16.2292C23.6074 16.2292 22.204 17.0218 21.3541 18.2313V16.2292H17.9374V29.0417H21.3541V22.2083C21.3541 20.793 22.5012 19.6458 23.9166 19.6458C25.3319 19.6458 26.4791 20.793 26.4791 22.2083V29.0417H29.8958C29.8958 29.0417 29.8958 21.2867 29.8958 20.9271Z" fill="white"/>
</svg>
