<svg width="41" height="41" viewBox="0 0 41 41" fill="none" xmlns="http://www.w3.org/2000/svg">
<path d="M29.0417 35.875H11.9583C8.1906 35.875 5.125 32.8094 5.125 29.0417V11.9583C5.125 8.1906 8.1906 5.125 11.9583 5.125H29.0417C32.8094 5.125 35.875 8.1906 35.875 11.9583V29.0417C35.875 32.8094 32.8094 35.875 29.0417 35.875Z" fill="url(#paint0_linear_246_99)"/>
<path opacity="0.05" d="M29.0416 13.6667C29.1936 13.6667 29.338 13.6931 29.4789 13.7299L22.7959 20.4137C22.1621 21.0467 21.331 21.3627 20.4999 21.3627C19.6688 21.3627 18.8377 21.0467 18.2039 20.4137L11.5209 13.7299C11.6619 13.6931 11.8062 13.6667 11.9583 13.6667H29.0416ZM30.6867 14.9377C30.7234 15.0786 30.7499 15.223 30.7499 15.375V25.625C30.7499 25.777 30.7234 25.9214 30.6867 26.0623L25.1244 20.5L30.6867 14.9377ZM10.3131 14.9377L15.8755 20.5L10.314 26.0615C10.2764 25.9214 10.2499 25.777 10.2499 25.625V15.375C10.2499 15.223 10.2764 15.0786 10.3131 14.9377ZM23.908 21.6992L29.4789 27.2701C29.338 27.3069 29.1936 27.3333 29.0416 27.3333H11.9583C11.8062 27.3333 11.6619 27.3069 11.5209 27.2701L17.0918 21.6992C18.0459 22.6072 19.2699 23.0702 20.4999 23.0702C21.7299 23.0702 22.9539 22.6072 23.908 21.6992ZM29.0416 12.8125H11.9583C11.7498 12.8125 11.5354 12.8424 11.3023 12.9047C11.0067 12.9833 10.7761 13.2131 10.6966 13.5086C10.6181 13.7999 10.6992 14.11 10.9085 14.3252C10.747 14.1689 10.5326 14.0835 10.3131 14.0835C10.2388 14.0835 10.1645 14.0929 10.091 14.1125C9.79636 14.192 9.56573 14.4226 9.48715 14.7181C9.42565 14.9522 9.39575 15.1666 9.39575 15.375V25.625C9.39575 25.8334 9.42565 26.0478 9.488 26.281C9.56659 26.5765 9.79636 26.8072 10.0919 26.8866C10.1654 26.9062 10.2397 26.9156 10.314 26.9156C10.5335 26.9156 10.7479 26.8311 10.9085 26.6748C10.6992 26.8909 10.6181 27.2009 10.6966 27.4914C10.7761 27.786 11.0067 28.0167 11.3023 28.0952C11.5354 28.1576 11.7498 28.1875 11.9583 28.1875H29.0416C29.25 28.1875 29.4644 28.1576 29.6976 28.0952C29.9931 28.0167 30.2238 27.7869 30.3032 27.4914C30.3818 27.2001 30.3006 26.89 30.0914 26.6748C30.2528 26.8311 30.4672 26.9156 30.6859 26.9156C30.7602 26.9156 30.8345 26.9062 30.9079 26.8866C31.2026 26.8072 31.4332 26.5765 31.5118 26.281C31.5742 26.0478 31.6041 25.8334 31.6041 25.625V15.375C31.6041 15.1666 31.5742 14.9522 31.5118 14.719C31.4332 14.4235 31.2035 14.1928 30.9079 14.1134C30.8345 14.0938 30.7602 14.0844 30.6859 14.0844C30.4663 14.0844 30.2519 14.1689 30.0905 14.3252C30.2998 14.1091 30.3809 13.7991 30.3023 13.5086C30.2229 13.214 29.9923 12.9833 29.6967 12.9047C29.4644 12.8424 29.25 12.8125 29.0416 12.8125Z" fill="black"/>
<path opacity="0.07" d="M29.0417 13.2396H11.9584C11.785 13.2396 11.6116 13.2644 11.4117 13.3173C11.264 13.3566 11.1487 13.4719 11.1094 13.6188C11.0701 13.7666 11.1119 13.9238 11.2196 14.0314L17.9026 20.7153C18.5953 21.408 19.5178 21.7898 20.5001 21.7898C21.4824 21.7898 22.4049 21.408 23.0976 20.7161L29.7806 14.0323C29.8882 13.9246 29.9309 13.7666 29.8908 13.6197C29.8515 13.4719 29.7353 13.3575 29.5884 13.3182C29.3885 13.2644 29.2151 13.2396 29.0417 13.2396ZM30.6869 14.5106C30.575 14.5106 30.4656 14.5542 30.3845 14.6353L24.823 20.1976C24.6565 20.3642 24.6565 20.635 24.823 20.8015L30.3845 26.363C30.4656 26.4442 30.575 26.4877 30.6869 26.4877C30.7236 26.4877 30.7612 26.4826 30.7979 26.4732C30.9457 26.4339 31.0601 26.3177 31.0994 26.1708C31.1524 25.9718 31.1772 25.7984 31.1772 25.625V15.375C31.1772 15.2016 31.1524 15.0282 31.0994 14.8283C31.0601 14.6806 30.9448 14.5653 30.7979 14.526C30.7612 14.5157 30.7236 14.5106 30.6869 14.5106ZM10.3133 14.5106C10.2766 14.5106 10.239 14.5157 10.2022 14.5251C10.0545 14.5644 9.94002 14.6806 9.90073 14.8275C9.84777 15.0282 9.823 15.2016 9.823 15.375V25.625C9.823 25.7984 9.84777 25.9718 9.90073 26.1717C9.94002 26.3194 10.0553 26.4348 10.2022 26.4741C10.239 26.4843 10.2766 26.4886 10.3133 26.4886C10.4252 26.4886 10.5345 26.445 10.6157 26.3639L16.1771 20.8024C16.3437 20.6358 16.3437 20.3651 16.1771 20.1985L10.6157 14.6362C10.5345 14.555 10.4252 14.5106 10.3133 14.5106ZM23.9082 21.2722C23.8023 21.2722 23.6964 21.3115 23.6135 21.3901C22.7636 22.1981 21.6583 22.6431 20.5001 22.6431C19.3418 22.6431 18.2357 22.1981 17.3866 21.3901C17.3038 21.3115 17.1979 21.2722 17.092 21.2722C16.9826 21.2722 16.8733 21.314 16.7896 21.3969L11.2187 26.9678C11.1111 27.0754 11.0684 27.2334 11.1085 27.3803C11.1487 27.5272 11.264 27.6426 11.4109 27.6818C11.6116 27.7357 11.785 27.7604 11.9584 27.7604H29.0417C29.2151 27.7604 29.3885 27.7357 29.5884 27.6827C29.7362 27.6434 29.8515 27.5281 29.8908 27.3812C29.9301 27.2343 29.8882 27.0762 29.7806 26.9686L24.2097 21.3977C24.1269 21.314 24.0175 21.2722 23.9082 21.2722Z" fill="black"/>
<path d="M30.6868 14.9377L25.1245 20.5L30.6859 26.0615C30.7235 25.9214 30.75 25.777 30.75 25.625V15.375C30.75 15.2229 30.7235 15.0786 30.6868 14.9377ZM22.796 20.4137L29.479 13.7299C29.3381 13.6931 29.1937 13.6667 29.0417 13.6667H11.9583C11.8063 13.6667 11.6619 13.6931 11.521 13.7299L18.204 20.4137C19.4707 21.6787 21.5293 21.6787 22.796 20.4137ZM10.3132 14.9377C10.2765 15.0786 10.25 15.2229 10.25 15.375V25.625C10.25 25.777 10.2765 25.9214 10.3132 26.0623L15.8755 20.5L10.3132 14.9377ZM20.5 23.0702C19.27 23.0702 18.046 22.6072 17.0919 21.6992L11.521 27.2701C11.6619 27.3068 11.8063 27.3333 11.9583 27.3333H29.0417C29.1937 27.3333 29.3381 27.3068 29.479 27.2701L23.9081 21.6992C22.954 22.6072 21.73 23.0702 20.5 23.0702Z" fill="#F9F9F9"/>
<defs>
<linearGradient id="paint0_linear_246_99" x1="20.5" y1="35.875" x2="20.5" y2="5.30181" gradientUnits="userSpaceOnUse">
<stop stop-color="#1AC8FC"/>
<stop offset="0.258" stop-color="#1BB6FA"/>
<stop offset="0.775" stop-color="#1C86F5"/>
<stop offset="1" stop-color="#1D70F2"/>
</linearGradient>
</defs>
</svg>
