<svg width="41" height="41" viewBox="0 0 41 41" fill="none" xmlns="http://www.w3.org/2000/svg">
<path d="M37.5834 20.5C37.5834 29.9343 29.9344 37.5833 20.5001 37.5833C11.0658 37.5833 3.41675 29.9343 3.41675 20.5C3.41675 11.0657 11.0658 3.41666 20.5001 3.41666C29.9344 3.41666 37.5834 11.0657 37.5834 20.5Z" fill="url(#paint0_linear_246_104)"/>
<path opacity="0.05" d="M8.64343 20.0439C15.6092 16.8877 23.7904 13.4634 25.0503 12.968C27.828 11.8755 29.0392 12.9919 28.8496 14.7728C28.6164 16.9552 27.5111 23.3059 26.8312 27.8561C26.4332 30.5185 24.9913 31.3343 23.3641 30.3016C22.1299 29.5183 17.8864 26.7397 16.77 25.7899C16.0089 25.1424 15.4785 24.4164 16.0183 23.6766C16.1763 23.4605 16.5803 23.0249 16.805 22.808C17.9316 21.7163 17.7796 21.4814 16.4172 22.456C16.2549 22.5722 15.3136 23.2547 14.9267 23.5126C13.9786 24.1447 13.1065 24.1789 11.6279 23.6766C10.4184 23.2658 9.25672 22.9489 8.52385 22.632C7.51166 22.1938 7.12387 20.7323 8.64343 20.0439Z" fill="black"/>
<path opacity="0.07" d="M9.25579 20.1506C15.7235 17.2593 23.6775 13.946 24.8409 13.477C27.6289 12.3513 28.6548 13.0192 28.355 15.1948C28.0765 17.2089 27.0882 23.4409 26.3955 27.6186C25.9872 30.0778 24.7948 30.6193 23.2419 29.6148C22.269 28.9879 18.3535 26.4083 17.4037 25.6575C16.6691 25.0775 15.908 24.4078 16.7972 23.4383C17.0945 23.1146 18.7362 21.5301 19.9636 20.3514C20.6751 19.6672 20.4215 19.3298 19.563 19.9175C17.9888 20.9963 15.4135 22.7038 14.9539 23.0138C14.0784 23.6032 13.2559 23.745 11.8243 23.2948C10.6959 22.9395 9.606 22.5953 9.03798 22.374C7.76869 21.882 7.75161 20.8229 9.25579 20.1506Z" fill="black"/>
<path d="M9.86813 20.2583C15.8388 17.6317 23.5647 14.4294 24.6315 13.9861C27.4289 12.8262 28.2874 13.0483 27.8594 15.6176C27.5519 17.4643 26.6653 23.5776 25.9581 27.3829C25.5387 29.6396 24.5974 29.9069 23.118 28.9306C22.4064 28.4608 18.8147 26.0854 18.0348 25.5276C17.3233 25.0194 16.3419 24.4078 17.5727 23.2034C18.0109 22.7747 20.8818 20.0328 23.1188 17.8991C23.4118 17.6189 23.0437 17.1585 22.7054 17.3832C19.6902 19.3828 15.5099 22.1579 14.9778 22.5193C14.174 23.0651 13.4018 23.3153 12.0164 22.9173C10.9692 22.6166 9.94672 22.2579 9.54868 22.1212C8.01545 21.595 8.37932 20.9134 9.86813 20.2583Z" fill="white"/>
<defs>
<linearGradient id="paint0_linear_246_104" x1="8.42046" y1="8.42037" x2="32.5797" y2="32.5796" gradientUnits="userSpaceOnUse">
<stop stop-color="#33BEF0"/>
<stop offset="1" stop-color="#0A85D9"/>
</linearGradient>
</defs>
</svg>
