<svg width="41" height="41" viewBox="0 0 41 41" fill="none" xmlns="http://www.w3.org/2000/svg">
<path d="M20.4999 4.27084C18.2458 4.27084 11.386 4.27084 7.59346 7.73364C5.33504 9.98351 4.27075 13.2345 4.27075 17.9375V20.5C4.27075 25.2031 5.33504 28.454 7.61994 30.7295C8.75769 31.7673 10.3089 32.5967 12.2051 33.1699L12.8124 33.3527V37.9037C12.8124 38.4375 12.967 38.4375 13.0183 38.4375C13.1233 38.4375 13.2916 38.4042 13.6111 38.1206C13.6879 38.0446 14.2517 37.4347 16.9936 34.3631L17.2703 34.0531L17.6846 34.0796C18.6028 34.1368 19.5501 34.1667 20.4999 34.1667C22.7541 34.1667 29.6139 34.1667 33.4064 30.703C35.6639 28.4532 36.7291 25.2022 36.7291 20.5V17.9375C36.7291 13.2345 35.6648 9.98351 33.3799 7.70801C29.6139 4.27084 22.7541 4.27084 20.4999 4.27084Z" fill="white"/>
<path d="M28.5727 24.6461C27.6238 23.8466 27.1856 23.6049 25.8753 22.8182C25.3295 22.4911 24.4975 22.2083 24.061 22.2083C23.7629 22.2083 23.4059 22.4364 23.1872 22.6551C22.6269 23.2154 22.4432 23.9167 21.4609 23.9167C20.5 23.9167 18.8216 22.9387 17.6172 21.6745C16.353 20.4701 15.375 18.7917 15.375 17.8307C15.375 16.8484 16.0635 16.652 16.6238 16.0908C16.8425 15.873 17.0833 15.5159 17.0833 15.2178C17.0833 14.7814 16.8006 13.9622 16.4735 13.4164C15.6868 12.1053 15.4459 11.6671 14.6456 10.7189C14.3748 10.3978 14.0664 10.2509 13.7436 10.25C13.1977 10.2492 12.4811 10.5199 11.9959 10.8812C11.2665 11.4253 10.5037 12.1659 10.2996 13.0884C10.2722 13.214 10.256 13.3404 10.2509 13.4668C10.2116 14.4277 10.5891 15.4032 10.9966 16.2292C11.9558 18.1758 13.2251 20.0601 14.6063 21.7428C15.0479 22.2809 15.5288 22.7815 16.0267 23.2649C16.5102 23.7621 17.0107 24.243 17.5489 24.6854C19.2316 26.0666 21.1159 27.3359 23.0625 28.2951C23.8808 28.6983 24.8443 29.069 25.7958 29.0417C25.9317 29.0374 26.0675 29.022 26.2033 28.9921C27.1258 28.7888 27.8663 28.0252 28.4105 27.2958C28.7718 26.8106 29.0425 26.0948 29.0417 25.5481C29.0408 25.2253 28.8939 24.9169 28.5727 24.6461ZM29.0417 20.5C28.5702 20.5 28.1875 20.1173 28.1875 19.6458V18.7917C28.1875 14.5533 24.7384 11.1042 20.5 11.1042C20.0285 11.1042 19.6458 10.7215 19.6458 10.25C19.6458 9.77851 20.0285 9.39584 20.5 9.39584C25.6805 9.39584 29.8958 13.6112 29.8958 18.7917V19.6458C29.8958 20.1173 29.5132 20.5 29.0417 20.5ZM23.7954 18.7917C23.4161 18.7917 23.0693 18.5371 22.9694 18.1528C22.7354 17.255 22.0349 16.5538 21.1406 16.3231C20.6837 16.2044 20.4095 15.7389 20.5273 15.2819C20.6452 14.8258 21.1099 14.5516 21.5686 14.6686C23.0617 15.0556 24.2319 16.2249 24.6222 17.7214C24.7409 18.1784 24.4676 18.6439 24.0115 18.7635C23.9389 18.7823 23.8663 18.7917 23.7954 18.7917Z" fill="#7E57C2"/>
<path d="M26.4792 19.6458C26.0077 19.6458 25.625 19.2632 25.625 18.7917C25.625 16.0686 23.4947 13.8221 20.7751 13.6786C20.3036 13.6539 19.9423 13.2516 19.967 12.7809C19.9918 12.3094 20.4009 11.9472 20.8648 11.9729C24.4924 12.1642 27.3334 15.1598 27.3334 18.7917C27.3334 19.2632 26.9507 19.6458 26.4792 19.6458Z" fill="#7E57C2"/>
<path d="M20.5 3.41666C16.6563 3.41666 10.6669 3.77028 7.01785 7.10324C4.43827 9.67172 3.41669 13.2746 3.41669 17.9375C3.41669 18.3236 3.41498 18.7541 3.4184 19.2187C3.41498 19.6826 3.41669 20.1131 3.41669 20.4991C3.41669 25.162 4.43827 28.7649 7.01785 31.3334C8.40673 32.6018 10.139 33.4363 11.9584 33.9864V37.9036C11.9584 39.2669 12.8544 39.2917 13.0184 39.2917H13.0261C13.448 39.2899 13.8127 39.0832 14.1783 38.7587C14.3159 38.6365 15.9037 36.8667 17.6309 34.9311C18.6593 34.9969 19.6365 35.0208 20.4992 35.0208C24.3429 35.0208 30.3315 34.6663 33.9813 31.3334C36.5601 28.7658 37.5825 25.162 37.5825 20.4991C37.5825 20.1131 37.5842 19.6826 37.5808 19.2179C37.5842 18.7532 37.5825 18.3236 37.5825 17.9366C37.5825 13.2737 36.5609 9.67086 33.9813 7.10238C30.3323 3.77028 24.3438 3.41666 20.5 3.41666ZM35.0209 20.2019V20.4991C35.0209 24.6897 34.1282 27.5452 32.2141 29.4781C28.8982 32.4583 22.5816 32.4583 20.4992 32.4583C19.8654 32.4583 18.837 32.4575 17.6232 32.3729C17.2858 32.7522 13.6667 36.8 13.6667 36.8V31.7921C11.8695 31.3607 10.0937 30.6535 8.78598 29.479C6.87179 27.5452 5.97919 24.6897 5.97919 20.4991V20.2019C5.97919 19.9021 5.97833 19.5783 5.98089 19.1999C5.97833 18.8583 5.97833 18.5354 5.97919 18.2347V17.9375C5.97919 13.7469 6.87179 10.8915 8.78598 8.95849C12.101 5.9783 18.4184 5.9783 20.5 5.9783C22.5816 5.9783 28.8982 5.9783 32.2132 8.95849C34.1282 10.8915 35.02 13.7469 35.02 17.9375V18.2347C35.02 18.5346 35.0209 18.8583 35.0183 19.2367C35.0209 19.5792 35.0209 19.9021 35.0209 20.2019Z" fill="#7E57C2"/>
</svg>
