<svg width="41" height="41" viewBox="0 0 41 41" fill="none" xmlns="http://www.w3.org/2000/svg">
<path fill-rule="evenodd" clip-rule="evenodd" d="M4.1582 36.988L6.45933 28.5873C5.0397 26.129 4.29316 23.3393 4.29402 20.4821C4.29829 11.5432 11.5724 4.27084 20.5121 4.27084C24.8504 4.27255 28.9213 5.96124 31.9835 9.02514C35.0449 12.0899 36.731 16.1626 36.7293 20.4949C36.7259 29.4337 29.4501 36.707 20.5121 36.707C20.5112 36.707 20.5121 36.707 20.5121 36.707H20.5052C17.7916 36.7061 15.124 36.0253 12.7554 34.733L4.1582 36.988Z" fill="white"/>
<path fill-rule="evenodd" clip-rule="evenodd" d="M4.15816 37.4151C4.04541 37.4151 3.93607 37.3706 3.85493 37.2886C3.74816 37.1802 3.7063 37.0221 3.74645 36.8761L6.00059 28.6453C4.60318 26.1631 3.86603 23.3444 3.86774 20.4829C3.87116 11.3075 11.3374 3.84375 20.512 3.84375C24.9622 3.84546 29.1434 5.57856 32.2859 8.7236C35.4283 11.8695 37.158 16.0498 37.1563 20.4949C37.1529 29.6695 29.6858 37.134 20.512 37.134C17.7881 37.1332 15.0932 36.461 12.7015 35.1891L4.26663 37.4005C4.23076 37.4108 4.19488 37.4151 4.15816 37.4151Z" fill="white"/>
<path fill-rule="evenodd" clip-rule="evenodd" d="M20.5119 4.27082C24.8502 4.27253 28.9211 5.96122 31.9833 9.02511C35.0447 12.0899 36.7308 16.1625 36.7291 20.4949C36.7257 29.4337 29.4499 36.7069 20.5119 36.7069H20.505C17.7913 36.7061 15.1238 36.0253 12.7552 34.733L4.15798 36.988L6.45911 28.5872C5.03948 26.1289 4.29294 23.3392 4.2938 20.4821C4.29807 11.5432 11.5722 4.27082 20.5119 4.27082ZM20.5119 3.41666C11.1024 3.41666 3.4439 11.0717 3.43963 20.4821C3.43878 23.358 4.16482 26.1922 5.54173 28.7008L3.33371 36.7633C3.25342 37.058 3.33542 37.3723 3.55067 37.5893C3.71296 37.7533 3.93248 37.843 4.15798 37.843C4.23059 37.843 4.30319 37.8336 4.37494 37.8148L12.6493 35.6452C15.0648 36.8991 17.7725 37.5611 20.505 37.562C29.9214 37.562 37.5798 29.9061 37.5841 20.4957C37.5858 15.9353 35.8117 11.6474 32.5889 8.42207C29.3644 5.19589 25.0757 3.41836 20.5119 3.41666Z" fill="#CFD8DC"/>
<path fill-rule="evenodd" clip-rule="evenodd" d="M30.0462 10.9607C27.5007 8.41353 24.1174 7.01013 20.5162 7.00928C13.0816 7.00928 7.03491 13.0534 7.03149 20.4829C7.03064 23.0292 7.74302 25.508 9.0926 27.6545L9.41377 28.1644L8.05137 33.1365L13.1533 31.7989L13.6462 32.091C15.715 33.3193 18.0878 33.9685 20.5068 33.9693H20.512C27.9415 33.9693 33.9881 27.9244 33.9907 20.494C33.9916 16.8937 32.5916 13.5078 30.0462 10.9607Z" fill="#40C351"/>
<path fill-rule="evenodd" clip-rule="evenodd" d="M16.458 13.7051C16.1548 13.0303 15.8353 13.0166 15.5457 13.0047C15.3091 12.9944 15.0392 12.9953 14.7693 12.9953C14.4994 12.9953 14.0604 13.0969 13.6888 13.5027C13.3172 13.9084 12.27 14.8881 12.27 16.8817C12.27 18.8754 13.7221 20.8024 13.9245 21.0723C14.127 21.3422 16.7279 25.5644 20.8467 27.189C24.2694 28.5386 24.9664 28.2704 25.7095 28.2029C26.4526 28.1354 28.1071 27.2231 28.4445 26.2767C28.7819 25.3303 28.7819 24.5197 28.6811 24.3506C28.5795 24.1815 28.3096 24.0807 27.9047 23.8774C27.4998 23.6741 25.507 22.6943 25.1355 22.5594C24.7639 22.4244 24.494 22.357 24.2232 22.7627C23.9533 23.1676 23.1769 24.0807 22.9403 24.3506C22.7037 24.6214 22.4671 24.6555 22.0622 24.4522C21.6573 24.2489 20.3521 23.8219 18.8035 22.4415C17.5992 21.3678 16.786 20.0413 16.5494 19.6356C16.3128 19.2307 16.5238 19.0112 16.7271 18.8087C16.909 18.6268 17.1319 18.3355 17.3352 18.0989C17.5377 17.8623 17.6051 17.6932 17.7401 17.4233C17.8751 17.1525 17.8076 16.9159 17.7059 16.7135C17.606 16.5102 16.8185 14.5063 16.458 13.7051Z" fill="white"/>
</svg>
