<svg width="30" height="30" viewBox="0 0 30 30" fill="none" xmlns="http://www.w3.org/2000/svg">
<path d="M20.4 0C15.1078 0 10.8 4.30781 10.8 9.6C10.8 10.7742 11.0133 11.8969 11.4 12.9375L0 24.3563V27.9563L11.1375 16.8L12 17.6625L0.6 29.0438L1.55625 30H5.64375L7.8 27.8438V26.4H9.24375L11.4 24.2438V23.4H12.2438L13.8 21.8438V21H14.6438L17.0625 18.5813C18.1055 18.9703 19.2234 19.2 20.4 19.2C25.6922 19.2 30 14.8922 30 9.6C30 4.30781 25.6922 0 20.4 0ZM20.4 3C22.1625 3 23.8219 3.68438 25.0688 4.93125C26.3156 6.17813 27 7.8375 27 9.6C27 11.3625 26.3156 13.0219 25.0688 14.2688L24.6375 14.7L15.3 5.3625L15.7313 4.93125C16.9781 3.68438 18.6375 3 20.4 3Z" fill="#BABABA"/>
</svg>
