<?xml version="1.0" standalone="no"?>
<!DOCTYPE svg PUBLIC "-//W3C//DTD SVG 1.1//EN" "http://www.w3.org/Graphics/SVG/1.1/DTD/svg11.dtd" >
<svg xmlns="http://www.w3.org/2000/svg" xmlns:xlink="http://www.w3.org/1999/xlink" version="1.1">
<metadata>
Created by FontForge 20200427 at Fri Dec  9 20:12:10 2016
 By www
(c) 2012 by Jeffrey N. Levine. All rights reserved.
</metadata>
<defs>
<font id="RomanWoodTypeJNL" horiz-adv-x="314" >
  <font-face 
    font-family="RomanWoodTypeJNL"
    font-weight="400"
    font-stretch="normal"
    units-per-em="1000"
    panose-1="0 0 4 0 0 0 0 0 0 0"
    ascent="981"
    descent="-19"
    x-height="760"
    cap-height="760"
    bbox="0 -115 795 945"
    underline-thickness="20"
    underline-position="-143"
    unicode-range="U+0020-2122"
  />
<missing-glyph horiz-adv-x="500" 
d="M63 0v800h375v-800h-375zM125 63h250v675h-250v-675z" />
    <glyph glyph-name=".notdef" horiz-adv-x="500" 
d="M63 0v800h375v-800h-375zM125 63h250v675h-250v-675z" />
    <glyph glyph-name=".null" horiz-adv-x="0" 
 />
    <glyph glyph-name="nonmarkingreturn" horiz-adv-x="225" 
 />
    <glyph glyph-name="space" unicode=" " horiz-adv-x="225" 
 />
    <glyph glyph-name="exclam" unicode="!" horiz-adv-x="172" 
d="M125 658l-25 -480h-28l-26 480q-1 21 -1 30q0 75 45 72q37 -3 37 -65q0 -5 -2 -37zM137 69q0 -29 -15 -49t-36 -20t-36 20t-15 49q0 28 15 48t36 20t36 -20t15 -48z" />
    <glyph glyph-name="quotedbl" unicode="&#x22;" horiz-adv-x="292" 
d="M137 691q0 -42 -20.5 -80t-58.5 -55q27 29 30 67h-2q-21 0 -36 20t-15 48q0 29 15 49t36 20t36 -20t15 -49zM257 691q0 -42 -20.5 -80t-58.5 -55q27 29 30 67h-2q-21 0 -36 20t-15 48q0 29 15 49t36 20t36 -20t15 -49z" />
    <glyph glyph-name="numbersign" unicode="#" horiz-adv-x="458" 
d="M423 501l-11 -53h-86l-30 -109h90l-11 -53h-94l-53 -193h-41l53 193h-96l-53 -193h-41l52 193h-67l11 53h72l29 109h-75l11 53h79l46 166h41l-46 -166h96l46 166h42l-46 -166h82zM285 448h-96l-30 -109h96z" />
    <glyph glyph-name="dollar" unicode="$" horiz-adv-x="278" 
d="M227 460h-38v83q0 70 -44 83v-206l8 -11q44 -60 61 -92q29 -54 29 -101q0 -38 -18 -76q-24 -52 -80 -52v-88h-12v89q-12 2 -22 6q-21 10 -25 -5h-36v211h35v-78q0 -90 48 -96v205q-32 45 -63 90q-33 52 -35 102q-2 48 22 91q29 49 76 52v93h12v-94q8 -6 25 -11
q10 0 20 8.5t17 8.5q20 0 20 -28v-184zM133 437v189q-24 -6 -34 -42q-7 -27 -4 -57q3 -40 38 -90zM183 184q5 57 -38 129v0v-187q33 5 38 58z" />
    <glyph glyph-name="percent" unicode="%" horiz-adv-x="505" 
d="M188 429q0 -43 -22 -67t-53 -25t-53 22q-25 26 -25 70v240q0 43 24 68q21 23 53 23q31 0 53.5 -24t22.5 -67v0v-240zM381 760l-234 -760h-26l235 760h25zM470 92q0 -43 -22 -67t-53 -25t-53 22q-25 26 -25 70v240q0 43 24 68q21 23 53 23q31 0 53.5 -24t22.5 -67v0v-240z
M139 403v292q0 37 -27 37q-28 0 -28 -37v-292q0 -38 28 -38q27 0 27 38zM421 66v292q0 37 -27 37q-28 0 -28 -37v-292q0 -38 28 -38q27 0 27 38z" />
    <glyph glyph-name="ampersand" unicode="&#x26;" horiz-adv-x="347" 
d="M310 127q2 -12 2 -30q0 -98 -40 -98q-30 0 -48 37q-7 -31 -54 -36q-40 3 -65 30q-37 41 -58 146q-12 56 -12 105q0 124 78 203v0q-10 64 -10 118q0 161 73 158q34 2 48 -43q11 -33 9 -73q-3 -78 -45 -114q14 -133 54 -305q10 54 10 95q0 55 -22 50v12h75v-10
q-13 -1 -28 -102q-9 -63 -17 -126q3 -59 20 -59q8 0 10 5q5 9 2 37h18zM200 645q1 60 -12 64q-19 -1 -19 -40q0 -27 12 -83v0q17 1 19 59zM202 85q-43 132 -78 324q-22 -29 -22 -102q0 -93 30 -168q32 -81 70 -54z" />
    <glyph glyph-name="quotesingle" unicode="'" horiz-adv-x="172" 
d="M137 691q0 -42 -20.5 -80t-58.5 -55q27 29 30 67h-2q-21 0 -36 20t-15 48q0 29 15 49t36 20t36 -20t15 -49z" />
    <glyph glyph-name="parenleft" unicode="(" horiz-adv-x="259" 
d="M224 0q-100 6 -150 151q-35 101 -37 226q-2 127 33 232q49 151 154 151v-49q-90 -43 -90 -329q0 -300 90 -335v-47z" />
    <glyph glyph-name="parenright" unicode=")" horiz-adv-x="259" 
d="M222 377q-2 -125 -37 -226q-50 -145 -150 -151v47q90 35 90 335q0 286 -90 329v49q105 0 154 -151q35 -105 33 -232z" />
    <glyph glyph-name="asterisk" unicode="*" horiz-adv-x="378" 
d="M335 676q8 -13 8 -23q0 -27 -50 -42q-35 -8 -71 -16l52 -36q36 -28 36 -50q0 -16 -18 -30q-12 -10 -24 -10q-26 0 -51 44l-30 64q-13 -32 -26 -65q-21 -44 -46 -44q-14 0 -28 13t-14 28q0 21 31 50q25 18 49 37q-29 5 -57 11q-39 9 -53 24q-8 9 -8 22q0 14 9.5 27
t22.5 15q22 5 57 -22l48 -42q-11 31 -22 92q-1 37 38 37q41 0 40 -39q0 -17 -10 -49q-12 -35 -13 -40l44 38q33 25 55 25q19 0 31 -19z" />
    <glyph glyph-name="plus" unicode="+" horiz-adv-x="292" 
d="M164 491v-93h93v-36h-93v-93h-36v93h-93v36h93v93h36z" />
    <glyph glyph-name="comma" unicode="," horiz-adv-x="172" 
d="M137 69q0 -43 -20 -79q-21 -39 -59 -57q27 30 30 67h-2q-21 0 -36 20t-15 49q0 28 15 48t36 20t36 -20t15 -48z" />
    <glyph glyph-name="hyphen" unicode="-" horiz-adv-x="172" 
d="M157 342h-142v76h142v-76z" />
    <glyph glyph-name="period" unicode="." horiz-adv-x="172" 
d="M137 69q0 -29 -15 -49t-36 -20t-36 20t-15 49q0 28 15 48t36 20t36 -20t15 -48z" />
    <glyph glyph-name="slash" unicode="/" horiz-adv-x="292" 
d="M257 760l-178 -760h-44l178 760h44z" />
    <glyph glyph-name="zero" unicode="0" horiz-adv-x="346" 
d="M311 165q0 -77 -42 -123q-38 -41 -93 -42q-57 -1 -97 40q-44 46 -44 125v431q0 78 43 123q39 41 95 41t94 -41q44 -46 44 -123v0v-431zM222 119v524q0 30 -14.5 48.5t-34.5 18.5t-35 -18.5t-15 -48.5v-524q0 -31 15 -50t35 -19t34.5 19t14.5 50z" />
    <glyph glyph-name="one" unicode="1" horiz-adv-x="215" 
d="M200 0h-165v52q42 6 42 48v551h-42v66q43 8 73 43h49l-2 -660q0 -19 13 -33t32 -16v-51z" />
    <glyph glyph-name="two" unicode="2" horiz-adv-x="306" 
d="M267 557q-1 -65 -48 -141q-68 -109 -77 -131q-28 -70 -28 -170q0 -10 19 9.5l19 19.5q8 0 23.5 -4.5t24.5 -3.5q26 2 26 65v33h41v-140q0 -95 -51 -95q-17 0 -40 17t-32 17q-16 0 -13 -33h-58q-21 69 -21 141q0 123 58 223q70 119 73 196q2 43 -3 83q-8 65 -32 65
q-17 -1 -27 -24q-8 -19 -9 -38q18 -31 18 -77q0 -62 -44 -62q-31 0 -43 37q-8 24 -8 64q1 61 31 104q34 49 91 48q114 -1 110 -203z" />
    <glyph glyph-name="three" unicode="3" horiz-adv-x="341" 
d="M306 164q0 -76 -43 -122q-37 -41 -93 -42v0v0v0h-3v0v0v0v0h-3v0q-58 2 -96 60q-31 48 -32 97q-1 40 8 65q13 37 46 37q47 -1 47 -63q0 -46 -20 -78q1 -30 15.5 -47.5t33.5 -17.5q25 0 38 20t13 46v174q0 25 -13 45q-15 24 -40 24h-14v57h14q25 0 40 21q13 18 13 44v159
q0 68 -51 67q-19 0 -33.5 -17.5t-15.5 -47.5q20 -32 20 -78q0 -62 -47 -63q-33 0 -46 37q-8 24 -8 65q1 74 42 116q37 39 91 38q56 -1 94 -41q43 -45 43 -121v-69q0 -93 -61 -139q61 -45 61 -138v-88z" />
    <glyph glyph-name="four" unicode="4" horiz-adv-x="292" 
d="M277 229l-42 1l1 -130q0 -46 32 -49v-51h-148v52q29 4 29 48v130h-134l1 75l131 455h85l3 -443h41zM149 317v249l-73 -249h73z" />
    <glyph glyph-name="five" unicode="5" horiz-adv-x="340" 
d="M305 163q0 -66 -37 -113q-39 -51 -103 -50q-54 1 -93 52q-36 48 -37 104q0 40 8 65q13 36 46 36q47 -1 47 -62q0 -46 -20 -78q1 -30 15.5 -47t33.5 -17q25 -1 39 21q12 18 12 45v210q0 38 -15 58t-36 20q-27 0 -41 -30l-61 13l22 363q14 4 30 4q18 0 53.5 -7t54.5 -7
q34 0 67 17v-106q-45 -13 -80 -13t-58 12l-18 -218q38 28 74 28q43 0 70 -37.5t27 -98.5v-164z" />
    <glyph glyph-name="six" unicode="6" horiz-adv-x="347" 
d="M312 165q0 -77 -42 -123q-38 -41 -93 -42q-57 -1 -98 40q-44 46 -44 125v431q0 78 43 123q39 41 95 41q60 0 99 -59q32 -48 33 -98q0 -40 -9 -64q-13 -37 -46 -37q-46 0 -46 62q0 46 19 78v0q-1 30 -15 47.5t-33 17.5q-21 0 -35 -15q-16 -18 -16 -49v-206q38 28 77 28
q47 0 79 -38t32 -99v-163zM223 119v211q0 38 -15 60q-14 19 -35 19q-21 -1 -35 -22t-14 -58v-210q0 -31 15 -50t34 -19q20 0 35 19t15 50z" />
    <glyph glyph-name="seven" unicode="7" horiz-adv-x="286" 
d="M262 760q9 -28 9 -62q0 -81 -53 -219q-48 -126 -48 -242q0 -84 26 -161q16 -38 31 -76h-132q-24 87 -24 177q0 159 68 295q50 101 54 109q24 61 20 118q-1 11 -15 -18q-19 -39 -32 -43q-5 -2 -11 -2q-7 0 -23.5 4t-25.5 2q-50 -7 -50 -81h-41v199h41q26 -17 59.5 -4
t53.5 -5q13 -12 22 -12q12 0 27 21h44z" />
    <glyph glyph-name="eight" unicode="8" horiz-adv-x="347" 
d="M312 164q0 -76 -42 -122q-38 -41 -93 -42q-57 -1 -98 40q-44 46 -44 124v86q0 94 60 139q-60 45 -60 138v68q0 77 42 123q38 41 93 42q57 1 97 -40q45 -46 45 -125v-68q0 -93 -60 -138q60 -45 60 -139v-86zM223 482v159q0 31 -15 50t-35 19q-19 0 -34 -19t-15 -50v-159
q0 -31 14.5 -48t34.5 -17q21 0 35.5 17t14.5 48zM223 119v172q0 32 -15 50.5t-35 18.5q-19 0 -34 -18.5t-15 -50.5v-172q0 -31 15 -50t34 -19q20 0 35 19t15 50z" />
    <glyph glyph-name="nine" unicode="9" horiz-adv-x="346" 
d="M311 164q0 -78 -43 -123q-39 -41 -95 -41q-59 0 -98 59q-32 48 -33 98q0 40 8 64q13 37 46 37q46 0 46 -62q0 -46 -19 -78v0q1 -30 15.5 -47.5t33.5 -17.5q20 0 35 16.5t15 47.5v206q-37 -28 -77 -28q-47 0 -78.5 38t-31.5 99v163q0 77 42 122q38 42 93 43q57 1 96 -40
q45 -46 45 -125v-431zM222 431v210q0 31 -14.5 50t-34.5 19t-35 -19t-15 -50v-212q0 -37 15 -57.5t36 -20.5q20 1 34 22t14 58z" />
    <glyph glyph-name="colon" unicode=":" horiz-adv-x="172" 
d="M137 69q0 -29 -15 -49t-36 -20t-36 20t-15 49q0 28 15 48t36 20t36 -20t15 -48zM137 389q0 -29 -15 -49t-36 -20t-36 20t-15 49q0 28 15 48t36 20t36 -20t15 -48z" />
    <glyph glyph-name="semicolon" unicode=";" horiz-adv-x="172" 
d="M137 389q0 -29 -15 -49t-36 -20t-36 20t-15 49q0 28 15 48t36 20t36 -20t15 -48zM137 69q0 -43 -20 -79q-21 -39 -59 -57q27 30 30 67h-2q-21 0 -36 20t-15 49q0 28 15 48t36 20t36 -20t15 -48z" />
    <glyph glyph-name="less" unicode="&#x3c;" horiz-adv-x="375" 
d="M340 0l-305 391l305 369v-93l-220 -276l220 -298v-93z" />
    <glyph glyph-name="equal" unicode="=" horiz-adv-x="292" 
d="M257 402h-222v36h222v-36zM257 322h-222v36h222v-36z" />
    <glyph glyph-name="greater" unicode="&#x3e;" horiz-adv-x="375" 
d="M340 391l-305 -391v93l220 298l-220 276v93z" />
    <glyph glyph-name="question" unicode="?" horiz-adv-x="305" 
d="M267 557q-1 -54 -53 -175q-50 -117 -47 -202h-32q-6 40 -6 78q0 65 25 156q27 96 29 146q2 43 -3 83q-8 65 -32 65q-17 -1 -27 -24q-8 -19 -9 -38q18 -31 18 -77q0 -61 -44 -62q-31 0 -43 37q-8 24 -8 64q1 61 31 104q34 49 91 48q113 -1 110 -203zM202 69q0 -29 -15 -49
t-36 -20t-36 20t-15 49t15 49t36 20t36 -20t15 -49z" />
    <glyph glyph-name="at" unicode="@" horiz-adv-x="817" 
d="M587 579h87q-158 -316 -158 -343q0 -44 46 -44q72 0 124 103q44 88 44 168q0 117 -82 187q-78 67 -197 67q-154 0 -252 -117q-93 -111 -93 -268q0 -136 95 -216q89 -76 228 -76q86 0 166 40t131 109l29 -29q-59 -75 -147.5 -117.5t-184.5 -42.5q-160 0 -270 89
q-118 96 -118 253q0 183 119 301t302 118q132 0 225 -75q101 -80 101 -209q0 -116 -61 -218q-70 -117 -178 -117q-40 0 -67.5 25t-27.5 65q-69 -78 -144 -78q-56 0 -88 38t-32 95q0 118 80 210q84 96 200 96q71 0 93 -62zM268 267q0 -23 15 -41t38 -18q72 0 139 109
q61 99 61 177q0 62 -52 62q-71 0 -139 -111q-62 -101 -62 -178z" />
    <glyph glyph-name="A" unicode="A" 
d="M299 0h-147v51q19 2 29 16t7 33l-8 57h-71l-7 -57q-6 -45 33 -49v-51h-120v52q37 5 42 48l74 660h43l86 -660q6 -43 39 -48v-52zM174 205l-31 226l-28 -226h59z" />
    <glyph glyph-name="B" unicode="B" horiz-adv-x="391" 
d="M355 201q-3 -201 -155 -201v0h-165v0v51q42 7 42 49v559q0 43 -42 49v52h165q152 0 155 -201q1 -119 -79 -179q80 -60 79 -179zM273 559q0 149 -68 150q-20 1 -35 -14t-15 -36v-249l26 1q92 0 92 148zM273 201q0 149 -92 148h-26v-249q0 -20 15 -34.5t35 -14.5
q68 -2 68 150z" />
    <glyph glyph-name="C" unicode="C" horiz-adv-x="339" 
d="M304 481h-54l-1 160q0 36 -21 59q-19 20 -45 21q-25 0 -41 -17q-19 -18 -19 -51v-535q0 -69 63 -67q24 0 43.5 18t19.5 45v168h54v-170q0 -55 -37 -88t-88 -34q-66 -1 -106 49q-37 47 -37 116v451q0 66 36 113q39 52 102 51q32 -1 63 -18q16 -9 18 7h50v-278z" />
    <glyph glyph-name="D" unicode="D" horiz-adv-x="375" 
d="M340 165q0 -67 -35 -113q-39 -52 -105 -52h-165v52q42 6 42 48v560q0 42 -42 48v52h147q72 0 115 -46.5t43 -116.5v-432zM252 120v524q0 30 -15.5 48t-35.5 18q-46 0 -46 -50v-560q0 -52 44 -49q21 1 37 19.5t16 49.5z" />
    <glyph glyph-name="E" unicode="E" horiz-adv-x="337" 
d="M302 0h-267v52q42 6 42 48v560q0 42 -42 48v52h267v-273h-38q1 102 -2 128q-12 93 -58 94q-20 1 -34.5 -14.5t-14.5 -34.5v-240h18q18 0 16 30l-1 29h47v-188h-42v27q0 31 -19 31h-19v-249q0 -17 13.5 -33t31.5 -16q45 -2 59 94q6 42 5 128h38v-273z" />
    <glyph glyph-name="F" unicode="F" horiz-adv-x="317" 
d="M302 487h-38q1 217 -65 224q-18 2 -31 -15t-13 -36v-240h18q18 0 16 30l-1 29h47v-188h-42v27q0 31 -19 31h-19v-249q0 -19 13 -33t32 -16v-51h-165v52q42 6 42 48v560q0 42 -42 48v52h267v-273z" />
    <glyph glyph-name="G" unicode="G" horiz-adv-x="383" 
d="M348 332q-44 -4 -44 -53v-279h-46l-16 11q-30 -20 -66 -21q-57 -1 -97 40q-44 46 -44 125v451q0 66 36 113q39 52 102 51q32 -1 63 -18q16 -9 18 7h51v-269h-52q5 96 -15 160q-22 70 -65 70q-20 0 -35 -18.5t-15 -48.5v-544q0 -31 15 -50t35 -19t34.5 19t14.5 50v173
q0 43 -39 49v52h165v-51z" />
    <glyph glyph-name="H" unicode="H" horiz-adv-x="431" 
d="M396 0h-165v52q42 6 42 48v255h-118v-255q0 -19 13 -33t32 -16v-51h-165v52q42 6 42 48v560q0 42 -42 48v52h165v-51q-19 -2 -32 -16t-13 -33v-255h118v255q0 42 -42 48v52h165v-51q-19 -2 -32 -16t-13 -33v-560q0 -19 13 -33t32 -16v-51z" />
    <glyph glyph-name="I" unicode="I" horiz-adv-x="235" 
d="M200 0h-165v52q42 6 42 48v560q0 42 -42 48v52h165v-51q-19 -2 -32 -16t-13 -33v-560q0 -19 13 -33t32 -16v-51z" />
    <glyph glyph-name="J" unicode="J" horiz-adv-x="330" 
d="M295 708q-42 -6 -42 -49l1 -498q0 -79 -37 -120t-99 -41q-103 0 -103 150q0 20 2 40q9 100 55 100q6 0 12 -2q22 -5 22 -32q0 -28 -32 -94q-8 -16 -8 -40q0 -71 52 -73q38 -1 51 41q6 20 6 71l-1 498q0 19 -13 33.5t-32 16.5v51h166v-52z" />
    <glyph glyph-name="K" unicode="K" horiz-adv-x="411" 
d="M396 0h-161v52q32 5 27 48l-43 323l-64 -152v-171q0 -19 13 -33t32 -16v-51h-165v52q42 6 42 48v560q0 42 -42 48v52h165v-51q-19 -2 -32 -16t-13 -33v-255l105 228q9 20 9 36q0 33 -38 39v52h165v-51q-31 -3 -64 -71l-46 -97l65 -441q7 -45 45 -49v-51z" />
    <glyph glyph-name="L" unicode="L" horiz-adv-x="317" 
d="M302 0h-267v52q42 6 42 48v560q0 42 -42 48v52h165v-51q-19 -2 -32 -16t-13 -33v-560q0 -19 13 -36t31 -15q66 7 65 224h38v-273z" />
    <glyph glyph-name="M" unicode="M" horiz-adv-x="484" 
d="M449 0h-165v52q41 6 41 48v435l-78 -535h-47l-75 534v-434q0 -19 13 -33t32 -16v-51h-135v52q42 6 42 48v560q0 42 -42 48v52h138l63 -457l63 457h141v-51q-36 -4 -36 -49v-560q0 -19 13 -33t32 -16v-51z" />
    <glyph glyph-name="N" unicode="N" horiz-adv-x="417" 
d="M402 709q-19 -2 -32 -16t-13 -33v-660h-87l-136 586v-486q0 -19 13 -33t32 -16v-51h-144v52q42 6 42 48v560q0 42 -42 48v52h144l121 -444v344q0 42 -42 48v52h144v-51z" />
    <glyph glyph-name="O" unicode="O" horiz-adv-x="346" 
d="M311 155q0 -77 -42 -123q-38 -41 -93 -42q-57 -1 -97 40q-44 46 -44 125v451q0 78 43 123q39 41 95 41t94 -41q44 -46 44 -123v0v-451zM222 109v544q0 30 -14.5 48.5t-34.5 18.5t-35 -18.5t-15 -48.5v-544q0 -31 15 -50t35 -19t34.5 19t14.5 50z" />
    <glyph glyph-name="P" unicode="P" horiz-adv-x="370" 
d="M355 559q0 -88 -47 -148q-50 -63 -127 -62h-26v-249q0 -19 13 -33t32 -16v-51h-165v52q42 6 42 48v560q0 42 -42 48v52h165q153 0 155 -201zM273 559q1 149 -68 150q-20 1 -35 -14t-15 -35v-253q56 -1 81 22q36 34 37 130z" />
    <glyph glyph-name="Q" unicode="Q" horiz-adv-x="377" 
d="M362 67q-36 -69 -74 -69q-16 0 -38 17q-33 -24 -74 -25q-57 -1 -97 40q-44 46 -44 125v451q0 78 43 123q39 41 95 41t94 -41q44 -46 44 -123v0v-451q0 -49 -18 -86q13 -9 23 -9q18 0 31 26zM222 132v521q0 30 -14.5 48.5t-34.5 18.5t-35 -18.5t-15 -48.5v-544q0 -6 1 -11
q30 47 63 47q16 0 35 -13zM206 57l-6 5q-23 24 -41 24q-15 0 -26 -19q14 -27 40 -27q19 0 33 17z" />
    <glyph glyph-name="R" unicode="R" horiz-adv-x="434" 
d="M419 152v-92q0 -27 -26.5 -43.5t-56.5 -16.5t-49 15q-22 16 -22 46v195q0 39 -21.5 66t-60.5 27h-28v-249q0 -19 13 -33t32 -16v-51h-165v52q42 6 42 48v560q0 42 -42 48v52h165q153 0 155 -201q1 -146 -101 -178q97 -6 97 -125v-180q0 -23 14 -22q11 1 14 21v77h40z
M273 559q1 149 -68 150q-20 1 -35 -14t-15 -35v-253q56 -1 81 22q36 34 37 130z" />
    <glyph glyph-name="S" unicode="S" horiz-adv-x="344" 
d="M288 493h-49v108q0 98 -65 111q-36 -3 -50 -52q-11 -36 -8 -80q5 -67 76 -163q56 -76 80 -124q37 -73 37 -137q0 -51 -23 -100q-27 -58 -88 -67q-33 -4 -61 8q-12 6 -18 6q-11 0 -14 -13h-47v276h45v-103q0 -124 70 -126q50 -1 58 76q10 103 -113 270q-76 102 -80 194
q-3 64 30 120q39 65 102 66q9 1 23 -7.5t22 -8.5q12 0 25 11t22 11q26 0 26 -36v-240z" />
    <glyph glyph-name="T" unicode="T" horiz-adv-x="352" 
d="M337 487h-47l-2 173q0 40 -34 42q-38 1 -38 -42v-560q0 -18 12.5 -32.5t31.5 -16.5v-51h-168v51q19 2 31.5 16.5t12.5 32.5v560q0 41 -35 42t-36 -39l-3 -176h-47v273h322v-273z" />
    <glyph glyph-name="U" unicode="U" horiz-adv-x="354" 
d="M339 709q-19 -2 -32 -16.5t-13 -33.5v-497q0 -162 -102 -162q-62 0 -99 41t-37 120l1 498q0 43 -42 49v52h166v-51q-19 -2 -32 -16.5t-13 -33.5l-1 -498q0 -51 6 -71q12 -42 51 -41q30 1 39 43q5 21 5 70v497q0 43 -42 49v52h145v-51z" />
    <glyph glyph-name="V" unicode="V" 
d="M299 708q-37 -5 -42 -48l-74 -660h-43l-86 660q-6 43 -39 48v52h147v-51q-19 -2 -28.5 -16t-7.5 -33l46 -331l40 331q6 45 -32 49v51h119v-52z" />
    <glyph glyph-name="W" unicode="W" horiz-adv-x="472" 
d="M457 709q-37 -6 -41 -49l-74 -660h-43l-61 466l-55 -466h-43l-86 659q-6 43 -39 49v51h146v-51q-41 -5 -35 -49l45 -330l43 330q-6 44 -41 50v50h147v-50q-18 -2 -28 -16t-7 -33l45 -330l40 330q6 45 -32 49v51h119v-51z" />
    <glyph glyph-name="X" unicode="X" horiz-adv-x="412" 
d="M377 709q-36 -4 -56 -64l-74 -230l78 -294q9 -34 14 -44q13 -24 36 -26v-51h-184v52q41 6 41 44q0 10 -3 21l-34 135l-43 -134q-6 -18 -6 -32q0 -32 33 -35v-51h-144v52q21 3 33 27q4 6 16 42l83 242l-70 279q-15 61 -49 66v52h174v-51q-38 -4 -38 -41q0 -10 3 -22
l33 -128l46 132q3 9 3 18q0 35 -36 40v52h144v-51z" />
    <glyph glyph-name="Y" unicode="Y" horiz-adv-x="359" 
d="M344 709q-36 -4 -56 -63l-73 -230v-295q0 -66 36 -70v-51h-170v52q26 3 33 27q5 12 5 47l2 289l-57 228q-15 60 -49 65v52h174v-51q-38 -4 -38 -41q0 -10 3 -22l34 -127l45 131q3 9 3 18q0 35 -36 40v52h144v-51z" />
    <glyph glyph-name="Z" unicode="Z" horiz-adv-x="383" 
d="M348 760l-188 -635q-5 -14 -5 -28q0 -38 32 -38q61 0 90 83q20 57 21 131h41v-273h-304l191 644q2 9 2 18q0 40 -35 40q-7 0 -16 -3q-49 -15 -73 -83q-19 -55 -19 -129h-41v273h304z" />
    <glyph glyph-name="bracketleft" unicode="[" horiz-adv-x="199" 
d="M164 -110h-114v870h114v-53h-35v-764h35v-53z" />
    <glyph glyph-name="backslash" unicode="\" horiz-adv-x="292" 
d="M257 0h-44l-178 760h44z" />
    <glyph glyph-name="bracketright" unicode="]" horiz-adv-x="199" 
d="M149 -110h-114v53h35v764h-35v53h114v-870z" />
    <glyph glyph-name="asciicircum" unicode="^" horiz-adv-x="411" 
d="M376 270h-43l-128 132l-128 -132h-42l170 242z" />
    <glyph glyph-name="underscore" unicode="_" horiz-adv-x="417" 
d="M0 -41h454v-27h-454v27z" />
    <glyph glyph-name="grave" unicode="`" horiz-adv-x="194" 
d="M159 800h-25l-99 141h51z" />
    <glyph glyph-name="a" unicode="a" 
d="M299 0h-147v51q19 2 29 16t7 33l-8 57h-71l-7 -57q-6 -45 33 -49v-51h-120v52q37 5 42 48l74 660h43l86 -660q6 -43 39 -48v-52zM174 205l-31 226l-28 -226h59z" />
    <glyph glyph-name="b" unicode="b" horiz-adv-x="391" 
d="M355 201q-3 -201 -155 -201v0h-165v0v51q42 7 42 49v559q0 43 -42 49v52h165q152 0 155 -201q1 -119 -79 -179q80 -60 79 -179zM273 559q0 149 -68 150q-20 1 -35 -14t-15 -36v-249l26 1q92 0 92 148zM273 201q0 149 -92 148h-26v-249q0 -20 15 -34.5t35 -14.5
q68 -2 68 150z" />
    <glyph glyph-name="c" unicode="c" horiz-adv-x="339" 
d="M304 481h-54l-1 160q0 36 -21 59q-19 20 -45 21q-25 0 -41 -17q-19 -18 -19 -51v-535q0 -69 63 -67q24 0 43.5 18t19.5 45v168h54v-170q0 -55 -37 -88t-88 -34q-66 -1 -106 49q-37 47 -37 116v451q0 66 36 113q39 52 102 51q32 -1 63 -18q16 -9 18 7h50v-278z" />
    <glyph glyph-name="d" unicode="d" horiz-adv-x="375" 
d="M340 165q0 -67 -35 -113q-39 -52 -105 -52h-165v52q42 6 42 48v560q0 42 -42 48v52h147q72 0 115 -46.5t43 -116.5v-432zM252 120v524q0 30 -15.5 48t-35.5 18q-46 0 -46 -50v-560q0 -52 44 -49q21 1 37 19.5t16 49.5z" />
    <glyph glyph-name="e" unicode="e" horiz-adv-x="337" 
d="M302 0h-267v52q42 6 42 48v560q0 42 -42 48v52h267v-273h-38q1 102 -2 128q-12 93 -58 94q-20 1 -34.5 -14.5t-14.5 -34.5v-240h18q18 0 16 30l-1 29h47v-188h-42v27q0 31 -19 31h-19v-249q0 -17 13.5 -33t31.5 -16q45 -2 59 94q6 42 5 128h38v-273z" />
    <glyph glyph-name="f" unicode="f" horiz-adv-x="317" 
d="M302 487h-38q1 217 -65 224q-18 2 -31 -15t-13 -36v-240h18q18 0 16 30l-1 29h47v-188h-42v27q0 31 -19 31h-19v-249q0 -19 13 -33t32 -16v-51h-165v52q42 6 42 48v560q0 42 -42 48v52h267v-273z" />
    <glyph glyph-name="g" unicode="g" horiz-adv-x="383" 
d="M348 332q-44 -4 -44 -53v-279h-46l-16 11q-30 -20 -66 -21q-57 -1 -97 40q-44 46 -44 125v451q0 66 36 113q39 52 102 51q32 -1 63 -18q16 -9 18 7h51v-269h-52q5 96 -15 160q-22 70 -65 70q-20 0 -35 -18.5t-15 -48.5v-544q0 -31 15 -50t35 -19t34.5 19t14.5 50v173
q0 43 -39 49v52h165v-51z" />
    <glyph glyph-name="h" unicode="h" horiz-adv-x="431" 
d="M396 0h-165v52q42 6 42 48v255h-118v-255q0 -19 13 -33t32 -16v-51h-165v52q42 6 42 48v560q0 42 -42 48v52h165v-51q-19 -2 -32 -16t-13 -33v-255h118v255q0 42 -42 48v52h165v-51q-19 -2 -32 -16t-13 -33v-560q0 -19 13 -33t32 -16v-51z" />
    <glyph glyph-name="i" unicode="i" horiz-adv-x="235" 
d="M200 0h-165v52q42 6 42 48v560q0 42 -42 48v52h165v-51q-19 -2 -32 -16t-13 -33v-560q0 -19 13 -33t32 -16v-51z" />
    <glyph glyph-name="j" unicode="j" horiz-adv-x="330" 
d="M295 708q-42 -6 -42 -49l1 -498q0 -79 -37 -120t-99 -41q-103 0 -103 150q0 20 2 40q9 100 55 100q6 0 12 -2q22 -5 22 -32q0 -28 -32 -94q-8 -16 -8 -40q0 -71 52 -73q38 -1 51 41q6 20 6 71l-1 498q0 19 -13 33.5t-32 16.5v51h166v-52z" />
    <glyph glyph-name="k" unicode="k" horiz-adv-x="411" 
d="M396 0h-161v52q32 5 27 48l-43 323l-64 -152v-171q0 -19 13 -33t32 -16v-51h-165v52q42 6 42 48v560q0 42 -42 48v52h165v-51q-19 -2 -32 -16t-13 -33v-255l105 228q9 20 9 36q0 33 -38 39v52h165v-51q-31 -3 -64 -71l-46 -97l65 -441q7 -45 45 -49v-51z" />
    <glyph glyph-name="l" unicode="l" horiz-adv-x="317" 
d="M302 0h-267v52q42 6 42 48v560q0 42 -42 48v52h165v-51q-19 -2 -32 -16t-13 -33v-560q0 -19 13 -36t31 -15q66 7 65 224h38v-273z" />
    <glyph glyph-name="m" unicode="m" horiz-adv-x="484" 
d="M449 0h-165v52q41 6 41 48v435l-78 -535h-47l-75 534v-434q0 -19 13 -33t32 -16v-51h-135v52q42 6 42 48v560q0 42 -42 48v52h138l63 -457l63 457h141v-51q-36 -4 -36 -49v-560q0 -19 13 -33t32 -16v-51z" />
    <glyph glyph-name="n" unicode="n" horiz-adv-x="417" 
d="M402 709q-19 -2 -32 -16t-13 -33v-660h-87l-136 586v-486q0 -19 13 -33t32 -16v-51h-144v52q42 6 42 48v560q0 42 -42 48v52h144l121 -444v344q0 42 -42 48v52h144v-51z" />
    <glyph glyph-name="o" unicode="o" horiz-adv-x="346" 
d="M311 155q0 -77 -42 -123q-38 -41 -93 -42q-57 -1 -97 40q-44 46 -44 125v451q0 78 43 123q39 41 95 41t94 -41q44 -46 44 -123v0v-451zM222 109v544q0 30 -14.5 48.5t-34.5 18.5t-35 -18.5t-15 -48.5v-544q0 -31 15 -50t35 -19t34.5 19t14.5 50z" />
    <glyph glyph-name="p" unicode="p" horiz-adv-x="370" 
d="M355 559q0 -88 -47 -148q-50 -63 -127 -62h-26v-249q0 -19 13 -33t32 -16v-51h-165v52q42 6 42 48v560q0 42 -42 48v52h165q153 0 155 -201zM273 559q1 149 -68 150q-20 1 -35 -14t-15 -35v-253q56 -1 81 22q36 34 37 130z" />
    <glyph glyph-name="q" unicode="q" horiz-adv-x="377" 
d="M362 67q-36 -69 -74 -69q-16 0 -38 17q-33 -24 -74 -25q-57 -1 -97 40q-44 46 -44 125v451q0 78 43 123q39 41 95 41t94 -41q44 -46 44 -123v0v-451q0 -49 -18 -86q13 -9 23 -9q18 0 31 26zM222 132v521q0 30 -14.5 48.5t-34.5 18.5t-35 -18.5t-15 -48.5v-544q0 -6 1 -11
q30 47 63 47q16 0 35 -13zM206 57l-6 5q-23 24 -41 24q-15 0 -26 -19q14 -27 40 -27q19 0 33 17z" />
    <glyph glyph-name="r" unicode="r" horiz-adv-x="434" 
d="M419 152v-92q0 -27 -26.5 -43.5t-56.5 -16.5t-49 15q-22 16 -22 46v195q0 39 -21.5 66t-60.5 27h-28v-249q0 -19 13 -33t32 -16v-51h-165v52q42 6 42 48v560q0 42 -42 48v52h165q153 0 155 -201q1 -146 -101 -178q97 -6 97 -125v-180q0 -23 14 -22q11 1 14 21v77h40z
M273 559q1 149 -68 150q-20 1 -35 -14t-15 -35v-253q56 -1 81 22q36 34 37 130z" />
    <glyph glyph-name="s" unicode="s" horiz-adv-x="344" 
d="M288 493h-49v108q0 98 -65 111q-36 -3 -50 -52q-11 -36 -8 -80q5 -67 76 -163q56 -76 80 -124q37 -73 37 -137q0 -51 -23 -100q-27 -58 -88 -67q-33 -4 -61 8q-12 6 -18 6q-11 0 -14 -13h-47v276h45v-103q0 -124 70 -126q50 -1 58 76q10 103 -113 270q-76 102 -80 194
q-3 64 30 120q39 65 102 66q9 1 23 -7.5t22 -8.5q12 0 25 11t22 11q26 0 26 -36v-240z" />
    <glyph glyph-name="t" unicode="t" horiz-adv-x="352" 
d="M337 487h-47l-2 173q0 40 -34 42q-38 1 -38 -42v-560q0 -18 12.5 -32.5t31.5 -16.5v-51h-168v51q19 2 31.5 16.5t12.5 32.5v560q0 41 -35 42t-36 -39l-3 -176h-47v273h322v-273z" />
    <glyph glyph-name="u" unicode="u" horiz-adv-x="354" 
d="M339 709q-19 -2 -32 -16.5t-13 -33.5v-497q0 -162 -102 -162q-62 0 -99 41t-37 120l1 498q0 43 -42 49v52h166v-51q-19 -2 -32 -16.5t-13 -33.5l-1 -498q0 -51 6 -71q12 -42 51 -41q30 1 39 43q5 21 5 70v497q0 43 -42 49v52h145v-51z" />
    <glyph glyph-name="v" unicode="v" 
d="M299 708q-37 -5 -42 -48l-74 -660h-43l-86 660q-6 43 -39 48v52h147v-51q-19 -2 -28.5 -16t-7.5 -33l46 -331l40 331q6 45 -32 49v51h119v-52z" />
    <glyph glyph-name="w" unicode="w" horiz-adv-x="472" 
d="M457 709q-37 -6 -41 -49l-74 -660h-43l-61 466l-55 -466h-43l-86 659q-6 43 -39 49v51h146v-51q-41 -5 -35 -49l45 -330l43 330q-6 44 -41 50v50h147v-50q-18 -2 -28 -16t-7 -33l45 -330l40 330q6 45 -32 49v51h119v-51z" />
    <glyph glyph-name="x" unicode="x" horiz-adv-x="412" 
d="M377 709q-36 -4 -56 -64l-74 -230l78 -294q9 -34 14 -44q13 -24 36 -26v-51h-184v52q41 6 41 44q0 10 -3 21l-34 135l-43 -134q-6 -18 -6 -32q0 -32 33 -35v-51h-144v52q21 3 33 27q4 6 16 42l83 242l-70 279q-15 61 -49 66v52h174v-51q-38 -4 -38 -41q0 -10 3 -22
l33 -128l46 132q3 9 3 18q0 35 -36 40v52h144v-51z" />
    <glyph glyph-name="y" unicode="y" horiz-adv-x="359" 
d="M344 709q-36 -4 -56 -63l-73 -230v-295q0 -66 36 -70v-51h-170v52q26 3 33 27q5 12 5 47l2 289l-57 228q-15 60 -49 65v52h174v-51q-38 -4 -38 -41q0 -10 3 -22l34 -127l45 131q3 9 3 18q0 35 -36 40v52h144v-51z" />
    <glyph glyph-name="z" unicode="z" horiz-adv-x="383" 
d="M348 760l-188 -635q-5 -14 -5 -28q0 -38 32 -38q61 0 90 83q20 57 21 131h41v-273h-304l191 644q2 9 2 18q0 40 -35 40q-7 0 -16 -3q-49 -15 -73 -83q-19 -55 -19 -129h-41v273h304z" />
    <glyph glyph-name="braceleft" unicode="{" horiz-adv-x="247" 
d="M212 -20q-80 -1 -105 65q-15 39 -15 135q1 77 -14 123t-43 46v61q41 2 53 70q5 31 4 100q0 96 15 135q25 66 105 65v-51q-39 -21 -39 -120q0 -22 2 -57t2 -45q0 -96 -49 -127q49 -31 49 -127q0 -10 -2 -45t-2 -57q0 -99 39 -120v-51z" />
    <glyph glyph-name="braceright" unicode="}" horiz-adv-x="247" 
d="M212 349q-28 0 -43 -46t-14 -123q1 -96 -14 -135q-26 -66 -106 -65v51q39 21 39 120q0 22 -2 57t-2 45q0 96 50 127q-50 31 -50 127q0 10 2 45t2 57q0 99 -39 120v51q80 1 106 -65q14 -39 14 -135q-1 -69 5 -100q12 -68 52 -70v-61z" />
    <glyph glyph-name="asciitilde" unicode="~" horiz-adv-x="449" 
d="M414 413q-32 -94 -106 -94q-33 0 -95.5 22t-95.5 22q-42 0 -51 -38l-31 15q31 90 111 90q33 0 94 -21t92 -21q39 0 52 38z" />
    <glyph glyph-name="exclamdown" unicode="&#xa1;" horiz-adv-x="172" 
d="M137 691q0 -28 -15 -48t-36 -20t-36 20t-15 48q0 29 15 49t36 20t36 -20t15 -49zM126 102q1 -21 1 -30q0 -75 -45 -72q-37 3 -37 65q0 5 2 37l25 480h29z" />
    <glyph glyph-name="cent" unicode="&#xa2;" horiz-adv-x="276" 
d="M241 426h-41l-1 83q-1 27 -15 43.5t-34 17.5v-372h1q18 1 33 14.5t15 34.5v89h41l1 -91q0 -40 -26.5 -65t-64.5 -28v-152h-12v152q-48 2 -76 40q-27 35 -27 86v205q0 49 27 85q29 40 76 40v152h12v-153q20 -2 39 -13q12 -6 14 6h38v-174zM138 199v371q-35 -7 -35 -51
v-269q0 -43 35 -51z" />
    <glyph glyph-name="sterling" unicode="&#xa3;" horiz-adv-x="330" 
d="M238 470q-35 0 -35 34q0 24 20 67t20 67q0 27 -11 48q-14 25 -40 25q-57 0 -57 -100l1 -211h45v-40h-45v-259q0 -19 14 -34.5t32 -15.5q48 0 62 96q6 42 5 133h38v-280h-272v52q18 3 30 17t12 32l-1 259h-41v40h41v199q0 71 32 113q36 48 104 48q103 0 103 -150
q0 -140 -57 -140z" />
    <glyph glyph-name="currency" unicode="&#xa4;" horiz-adv-x="377" 
d="M342 606h-53l-2 25q-2 37 -21 58t-45 22q-25 0 -41 -17q-19 -18 -19 -51v-196h152l-15 -35h-137v-46h117l-14 -35h-103v-203q0 -69 63 -67q24 0 43.5 18t19.5 45v58h54l1 -60q0 -55 -37.5 -88t-88.5 -34q-66 -1 -106 49q-37 47 -37 116v166l-58 1l15 35l43 -1v46h-58
l15 35h43v149q0 66 36 113q39 52 102 51q32 -1 63 -18q16 -9 18 7h50v-143z" />
    <glyph glyph-name="yen" unicode="&#xa5;" horiz-adv-x="359" 
d="M344 709q-36 -4 -56 -63l-70 -219h89v-35h-92v-46h92v-35h-92v-190q0 -66 36 -70v-51h-170v52q26 3 33 27q5 12 5 47l1 185h-86v35h87v46h-87v35h84l-54 216q-15 60 -49 65v52h174v-51q-38 -4 -38 -41q0 -10 3 -22l34 -127l45 131q3 9 3 18q0 35 -36 40v52h144v-51z" />
    <glyph glyph-name="dieresis" unicode="&#xa8;" horiz-adv-x="284" 
d="M249 840q0 -16 -12 -28t-29 -12q-16 0 -28 12t-12 28q0 17 12 29t28 12q17 0 29 -12t12 -29zM116 840q0 -16 -12 -28t-29 -12q-16 0 -28 12t-12 28q0 17 12 29t28 12q17 0 29 -12t12 -29z" />
    <glyph glyph-name="copyright" unicode="&#xa9;" horiz-adv-x="830" 
d="M795 380q0 -161 -109.5 -270.5t-270.5 -109.5t-270.5 109.5t-109.5 270.5t109.5 270.5t270.5 109.5t270.5 -109.5t109.5 -270.5zM72 380q0 -145 99 -244t244 -99t244 99t99 244t-99 244t-244 99t-244 -99t-99 -244zM183 370q0 -91 69 -149q64 -55 157 -55q153 0 238 126
l-39 25q-72 -102 -199 -102q-63 0 -113 41q-54 43 -54 104q0 90 50.5 137t141.5 47q110 0 165 -89l45 23q-59 116 -214 116q-108 0 -175 -57q-72 -61 -72 -167z" />
    <glyph glyph-name="ordfeminine" unicode="&#xaa;" horiz-adv-x="253" 
d="M140 398v306q0 38 -27 38q-28 0 -28 -38v-306q0 -39 28 -39q27 0 27 39zM218 332h-73l-2 6q-14 -6 -29 -7q-32 -1 -54 23q-25 25 -25 70v254q0 43 24 69q22 23 53 23q20 0 37 -10h69v-29q-26 -2 -26 -27v-315q0 -25 26 -28v-29z" />
    <glyph glyph-name="guillemotleft" unicode="&#xab;" horiz-adv-x="362" 
d="M155 386l172 208v-52l-124 -156l124 -167v-53zM35 386l172 208v-52l-124 -156l124 -167v-53z" />
    <glyph glyph-name="minus" unicode="&#xad;" horiz-adv-x="292" 
d="M257 362h-222v36h222v-36z" />
    <glyph glyph-name="registered" unicode="&#xae;" horiz-adv-x="505" 
d="M252 325q-90 0 -153.5 63.5t-63.5 153.5q0 91 63 154.5t154 63.5t154.5 -63.5t63.5 -154.5t-63.5 -154t-154.5 -63zM252 732q-80 0 -134.5 -55t-54.5 -135q0 -79 55 -134t134 -55q80 0 135 54.5t55 134.5t-55 135t-135 55zM336 420l-59 97h-89v-98h-41v247h118
q114 0 114 -75q0 -52 -59 -69l62 -102h-46zM265 627h-76v-70h72q77 0 77 37q0 33 -73 33z" />
    <glyph glyph-name="twosuperior" unicode="&#xb2;" horiz-adv-x="166" 
d="M131 676q0 -27 -20 -59q-28 -45 -32 -54q-11 -29 -11 -70q2 5 12 11q7 -2 23 -3q11 1 11 28v13h17v-58q0 -31 -14 -38q-10 -5 -24 6q-8 7 -13 7q-6 0 -5 -14h-24q-9 29 -9 58q0 51 24 93q29 49 30 81q1 18 -1 35q-3 27 -13 26q-14 0 -15 -25q8 -13 7 -32q0 -26 -18 -26
q-12 0 -18 14q-3 11 -3 28q0 25 13.5 44t37.5 19q47 0 45 -84z" />
    <glyph glyph-name="threesuperior" unicode="&#xb3;" horiz-adv-x="182" 
d="M147 515q0 -31 -16.5 -48.5t-39.5 -18.5v0v0v0h-1h-1v0v0v0h-1v0q-24 1 -40 25q-13 20 -13 39q0 17 3 27q6 15 20 15q19 0 19 -25q0 -19 -8 -33q1 -26 20 -26q21 0 21 27v71q0 29 -22 28h-5v24h5q22 0 22 27v65q0 28 -21 27q-19 0 -20 -26q8 -13 8 -32q0 -26 -19 -26
q-14 0 -19 14q-4 10 -4 28q0 30 17 48q16 15 38 15q23 0 40 -17.5t17 -49.5v-28q0 -38 -25 -57q25 -18 25 -57v-36z" />
    <glyph glyph-name="acute" unicode="&#xb4;" horiz-adv-x="194" 
d="M159 941l-100 -141h-24l72 141h52z" />
    <glyph glyph-name="periodcentered" unicode="&#xb7;" horiz-adv-x="151" 
d="M116 380q0 -16 -12 -28t-29 -12q-16 0 -28 12t-12 28q0 17 12 29t28 12q17 0 29 -12t12 -29z" />
    <glyph glyph-name="cedilla" unicode="&#xb8;" horiz-adv-x="194" 
d="M159 26l-100 -141h-24l72 141h52z" />
    <glyph glyph-name="onesuperior" unicode="&#xb9;" horiz-adv-x="138" 
d="M103 446h-68v21q17 3 17 20v228h-17v27q18 4 30 18h20v-273q0 -18 18 -20v-21z" />
    <glyph glyph-name="ordmasculine" unicode="&#xba;" horiz-adv-x="225" 
d="M190 424q0 -43 -22.5 -67.5t-53.5 -25.5q-32 -1 -54 23q-25 25 -25 70v254q0 43 24 69q22 23 53 23q32 0 54 -23q24 -26 24 -69v0v-254zM140 398v306q0 38 -27 38q-28 0 -28 -38v-306q0 -39 28 -39q27 0 27 39z" />
    <glyph glyph-name="guillemotright" unicode="&#xbb;" horiz-adv-x="362" 
d="M207 386l-172 -220v53l124 167l-124 156v52zM327 386l-172 -220v53l124 167l-124 156v52z" />
    <glyph glyph-name="onequarter" unicode="&#xbc;" horiz-adv-x="397" 
d="M126 341h-91v28q23 4 23 27v304h-23v36q24 5 40 24h27l-1 -364q0 -25 25 -27v-28zM326 760l-235 -760h-26l235 760h26zM362 127h-23v-72q1 -25 18 -27v-28h-82v28q16 3 16 27v72h-73v41l72 251h47l2 -244h23v-48zM291 175v137l-40 -137h40z" />
    <glyph glyph-name="onehalf" unicode="&#xbd;" horiz-adv-x="427" 
d="M126 341h-91v28q23 4 23 27v304h-23v36q24 5 40 24h27l-1 -364q0 -25 25 -27v-28zM326 760l-235 -760h-26l235 760h26zM390 308q0 -36 -27 -78q-37 -60 -42 -72q-16 -39 -16 -94q3 6 16 15q7 2 17 -1t15 -3q14 2 14 37v18h23v-78q0 -41 -18 -50q-15 -7 -33 8q-11 9 -17 9
q-9 0 -7 -19h-32q-12 38 -12 78q0 68 32 123q39 66 41 109q1 23 -2 46q-4 36 -18 35q-18 0 -20 -34q11 -17 11 -43q0 -33 -25 -34q-17 0 -24 21q-4 13 -4 35q0 34 18 59.5t49 24.5q63 0 61 -112z" />
    <glyph glyph-name="threequarters" unicode="&#xbe;" horiz-adv-x="444" 
d="M184 434q0 -42 -22 -65.5t-53 -24.5v0v0v0h-1v0v0v0v0h-2v0q-32 1 -53 33q-18 26 -18 53q0 22 5 36q7 20 25 20q26 -1 26 -34q0 -26 -11 -43q1 -36 27 -36q28 0 28 36v95q0 38 -29 38h-8v32l8 -1q29 0 29 36v87q0 37 -28 37q-26 -1 -27 -36q11 -17 11 -43q0 -34 -26 -34
q-18 0 -25 19q-5 14 -5 37q0 40 22 62t52 22t52.5 -23.5t22.5 -65.5v-37q0 -51 -33 -76q33 -25 33 -76v-48zM373 760l-235 -760h-26l235 760h26zM409 126l-23 1v-72q0 -25 17 -27v-28h-81v28q16 3 16 27v72h-74l1 41l72 251h47l1 -244h23zM338 175v137l-40 -137h40z" />
    <glyph glyph-name="questiondown" unicode="&#xbf;" horiz-adv-x="306" 
d="M205 691q0 -29 -15 -49t-36 -20t-36 20t-15 49t15 49t36 20t36 -20t15 -49zM270 152q0 -61 -31 -104q-34 -49 -91 -48q-113 1 -110 203q1 54 53 175q50 117 47 202h32q6 -40 6 -78q0 -65 -25 -156q-27 -96 -29 -146q-2 -43 3 -83q8 -65 32 -65q17 1 27 24q8 19 9 38
q-18 31 -18 77q0 61 44 62q31 0 44 -37q8 -24 7 -64z" />
    <glyph glyph-name="Agrave" unicode="&#xc0;" 
d="M299 0h-147v51q19 2 29 16t7 33l-8 57h-71l-7 -57q-6 -45 33 -49v-51h-120v52q37 5 42 48l74 660h43l86 -660q6 -43 39 -48v-52zM174 205l-31 226l-28 -226h59zM219 800h-25l-99 141h51z" />
    <glyph glyph-name="Aacute" unicode="&#xc1;" 
d="M299 0h-147v51q19 2 29 16t7 33l-8 57h-71l-7 -57q-6 -45 33 -49v-51h-120v52q37 5 42 48l74 660h43l86 -660q6 -43 39 -48v-52zM174 205l-31 226l-28 -226h59zM219 941l-100 -141h-24l72 141h52z" />
    <glyph glyph-name="Acircumflex" unicode="&#xc2;" 
d="M299 0h-147v51q19 2 29 16t7 33l-8 57h-71l-7 -57q-6 -45 33 -49v-51h-120v52q37 5 42 48l74 660h43l86 -660q6 -43 39 -48v-52zM174 205l-31 226l-28 -226h59zM250 800h-26l-77 79l-77 -79h-25l102 145z" />
    <glyph glyph-name="Atilde" unicode="&#xc3;" 
d="M299 0h-147v51q19 2 29 16t7 33l-8 57h-71l-7 -57q-6 -45 33 -49v-51h-120v52q37 5 42 48l74 660h43l86 -660q6 -43 39 -48v-52zM174 205l-31 226l-28 -226h59zM263 855q-19 -56 -64 -56q-20 0 -57.5 13.5t-56.5 13.5q-26 0 -31 -23l-19 9q19 54 67 54q19 0 56 -12.5
t55 -12.5q24 0 32 23z" />
    <glyph glyph-name="Adieresis" unicode="&#xc4;" 
d="M299 0h-147v51q19 2 29 16t7 33l-8 57h-71l-7 -57q-6 -45 33 -49v-51h-120v52q37 5 42 48l74 660h43l86 -660q6 -43 39 -48v-52zM174 205l-31 226l-28 -226h59zM259 840q0 -16 -12 -28t-29 -12q-16 0 -28 12t-12 28q0 17 12 29t28 12q17 0 29 -12t12 -29zM126 840
q0 -16 -12 -28t-29 -12q-16 0 -28 12t-12 28q0 17 12 29t28 12q17 0 29 -12t12 -29z" />
    <glyph glyph-name="Aring" unicode="&#xc5;" 
d="M174 205l-31 226l-28 -226h59zM212 817q0 -42 -40 -57h2l86 -660q6 -43 39 -48v-52h-147v51q19 2 29 16t7 33l-8 57h-71l-7 -57q-6 -45 33 -49v-51h-120v52q37 5 42 48l74 660q-41 14 -41 57q0 25 18 43t43 18t43 -18t18 -43zM188 817q0 15 -11 26t-26 11t-26 -11
t-11 -26t11 -26t26 -11t26 11t11 26z" />
    <glyph glyph-name="AE" unicode="&#xc6;" horiz-adv-x="493" 
d="M458 0h-267v52q42 6 42 48v57h-124l-7 -57q-6 -45 33 -49v-51h-120v52q35 5 42 48l101 660h300v-273h-38q1 102 -2 128q-12 93 -58 94q-20 1 -34.5 -14.5t-14.5 -34.5v-240h18q18 0 16 30l-1 29h47v-188h-42v27q0 31 -19 31h-19v-249q0 -17 13.5 -33t31.5 -16
q45 -2 58 94q7 42 6 128h38v-273zM233 205v455q0 43 -22 43q-19 0 -25 -42l-71 -456h118z" />
    <glyph glyph-name="Ccedilla" unicode="&#xc7;" horiz-adv-x="339" 
d="M201 -8l-75 -107h-25l55 106q-57 8 -90 56q-31 45 -31 108v451q0 66 36 113q39 52 102 51q32 -1 63 -18q16 -9 18 7h50v-278h-54l-1 160q0 36 -21 59q-19 20 -45 21q-25 0 -41 -17q-19 -18 -19 -51v-535q0 -69 63 -67q24 0 43.5 18t19.5 45v168h54v-170q0 -48 -29 -80
t-73 -40z" />
    <glyph glyph-name="Egrave" unicode="&#xc8;" horiz-adv-x="337" 
d="M302 0h-267v52q42 6 42 48v560q0 42 -42 48v52h267v-273h-38q1 102 -2 128q-12 93 -58 94q-20 1 -34.5 -14.5t-14.5 -34.5v-240h18q18 0 16 30l-1 29h47v-188h-42v27q0 31 -19 31h-19v-249q0 -17 13.5 -33t31.5 -16q45 -2 59 94q6 42 5 128h38v-273zM229 800h-25l-99 141
h51z" />
    <glyph glyph-name="Eacute" unicode="&#xc9;" horiz-adv-x="337" 
d="M302 0h-267v52q42 6 42 48v560q0 42 -42 48v52h267v-273h-38q1 102 -2 128q-12 93 -58 94q-20 1 -34.5 -14.5t-14.5 -34.5v-240h18q18 0 16 30l-1 29h47v-188h-42v27q0 31 -19 31h-19v-249q0 -17 13.5 -33t31.5 -16q45 -2 59 94q6 42 5 128h38v-273zM229 941l-100 -141
h-24l72 141h52z" />
    <glyph glyph-name="Ecircumflex" unicode="&#xca;" horiz-adv-x="337" 
d="M302 0h-267v52q42 6 42 48v560q0 42 -42 48v52h267v-273h-38q1 102 -2 128q-12 93 -58 94q-20 1 -34.5 -14.5t-14.5 -34.5v-240h18q18 0 16 30l-1 29h47v-188h-42v27q0 31 -19 31h-19v-249q0 -17 13.5 -33t31.5 -16q45 -2 59 94q6 42 5 128h38v-273zM270 800h-26l-77 79
l-77 -79h-25l102 145z" />
    <glyph glyph-name="Edieresis" unicode="&#xcb;" horiz-adv-x="337" 
d="M302 0h-267v52q42 6 42 48v560q0 42 -42 48v52h267v-273h-38q1 102 -2 128q-12 93 -58 94q-20 1 -34.5 -14.5t-14.5 -34.5v-240h18q18 0 16 30l-1 29h47v-188h-42v27q0 31 -19 31h-19v-249q0 -17 13.5 -33t31.5 -16q45 -2 59 94q6 42 5 128h38v-273zM279 840
q0 -16 -12 -28t-29 -12q-16 0 -28 12t-12 28q0 17 12 29t28 12q17 0 29 -12t12 -29zM146 840q0 -16 -12 -28t-29 -12q-16 0 -28 12t-12 28q0 17 12 29t28 12q17 0 29 -12t12 -29z" />
    <glyph glyph-name="Igrave" unicode="&#xcc;" horiz-adv-x="235" 
d="M200 0h-165v52q42 6 42 48v560q0 42 -42 48v52h165v-51q-19 -2 -32 -16t-13 -33v-560q0 -19 13 -33t32 -16v-51zM179 800h-25l-99 141h51z" />
    <glyph glyph-name="Iacute" unicode="&#xcd;" horiz-adv-x="235" 
d="M200 0h-165v52q42 6 42 48v560q0 42 -42 48v52h165v-51q-19 -2 -32 -16t-13 -33v-560q0 -19 13 -33t32 -16v-51zM179 941l-100 -141h-24l72 141h52z" />
    <glyph glyph-name="Icircumflex" unicode="&#xce;" horiz-adv-x="235" 
d="M200 0h-165v52q42 6 42 48v560q0 42 -42 48v52h165v-51q-19 -2 -32 -16t-13 -33v-560q0 -19 13 -33t32 -16v-51zM221 800h-26l-77 79l-77 -79h-25l102 145z" />
    <glyph glyph-name="Idieresis" unicode="&#xcf;" horiz-adv-x="244" 
d="M210 0h-165v52q42 6 42 48v560q0 42 -42 48v52h165v-51q-19 -2 -32 -16t-13 -33v-560q0 -19 13 -33t32 -16v-51zM230 840q0 -16 -12 -28t-29 -12q-16 0 -28 12t-12 28q0 17 12 29t28 12q17 0 29 -12t12 -29zM97 840q0 -16 -12 -28t-29 -12q-16 0 -28 12t-12 28
q0 17 12 29t28 12q17 0 29 -12t12 -29z" />
    <glyph glyph-name="Eth" unicode="&#xd0;" horiz-adv-x="355" 
d="M320 165q0 -67 -35 -113q-39 -52 -105 -52h-165v52q42 6 42 48v245h-42v70h42v245q0 42 -42 48v52h147q72 0 115 -46.5t43 -116.5v-432zM232 120v524q0 30 -15.5 48t-35.5 18q-46 0 -46 -50v-245h47v-70h-47v-245q0 -52 44 -49q21 1 37 19.5t16 49.5z" />
    <glyph glyph-name="Ntilde" unicode="&#xd1;" horiz-adv-x="417" 
d="M402 709q-19 -2 -32 -16t-13 -33v-660h-87l-136 586v-486q0 -19 13 -33t32 -16v-51h-144v52q42 6 42 48v560q0 42 -42 48v52h144l121 -444v344q0 42 -42 48v52h144v-51zM333 855q-19 -56 -64 -56q-20 0 -57.5 13.5t-56.5 13.5q-26 0 -31 -23l-19 9q19 54 67 54
q19 0 56 -12.5t55 -12.5q24 0 32 23z" />
    <glyph glyph-name="Ograve" unicode="&#xd2;" horiz-adv-x="346" 
d="M311 155q0 -77 -42 -123q-38 -41 -93 -42q-57 -1 -97 40q-44 46 -44 125v451q0 78 43 123q39 41 95 41t94 -41q44 -46 44 -123v0v-451zM222 109v544q0 30 -14.5 48.5t-34.5 18.5t-35 -18.5t-15 -48.5v-544q0 -31 15 -50t35 -19t34.5 19t14.5 50zM239 800h-25l-99 141h51z
" />
    <glyph glyph-name="Oacute" unicode="&#xd3;" horiz-adv-x="346" 
d="M311 155q0 -77 -42 -123q-38 -41 -93 -42q-57 -1 -97 40q-44 46 -44 125v451q0 78 43 123q39 41 95 41t94 -41q44 -46 44 -123v0v-451zM222 109v544q0 30 -14.5 48.5t-34.5 18.5t-35 -18.5t-15 -48.5v-544q0 -31 15 -50t35 -19t34.5 19t14.5 50zM229 941l-100 -141h-24
l72 141h52z" />
    <glyph glyph-name="Ocircumflex" unicode="&#xd4;" horiz-adv-x="346" 
d="M311 155q0 -77 -42 -123q-38 -41 -93 -42q-57 -1 -97 40q-44 46 -44 125v451q0 78 43 123q39 41 95 41t94 -41q44 -46 44 -123v0v-451zM222 109v544q0 30 -14.5 48.5t-34.5 18.5t-35 -18.5t-15 -48.5v-544q0 -31 15 -50t35 -19t34.5 19t14.5 50zM270 800h-26l-77 79
l-77 -79h-25l102 145z" />
    <glyph glyph-name="Otilde" unicode="&#xd5;" horiz-adv-x="346" 
d="M311 155q0 -77 -42 -123q-38 -41 -93 -42q-57 -1 -97 40q-44 46 -44 125v451q0 78 43 123q39 41 95 41t94 -41q44 -46 44 -123v0v-451zM222 109v544q0 30 -14.5 48.5t-34.5 18.5t-35 -18.5t-15 -48.5v-544q0 -31 15 -50t35 -19t34.5 19t14.5 50zM283 855q-19 -56 -64 -56
q-20 0 -57.5 13.5t-56.5 13.5q-26 0 -31 -23l-19 9q19 54 67 54q19 0 56 -12.5t55 -12.5q24 0 32 23z" />
    <glyph glyph-name="Odieresis" unicode="&#xd6;" horiz-adv-x="346" 
d="M311 155q0 -77 -42 -123q-38 -41 -93 -42q-57 -1 -97 40q-44 46 -44 125v451q0 78 43 123q39 41 95 41t94 -41q44 -46 44 -123v0v-451zM222 109v544q0 30 -14.5 48.5t-34.5 18.5t-35 -18.5t-15 -48.5v-544q0 -31 15 -50t35 -19t34.5 19t14.5 50zM279 840q0 -16 -12 -28
t-29 -12q-16 0 -28 12t-12 28q0 17 12 29t28 12q17 0 29 -12t12 -29zM146 840q0 -16 -12 -28t-29 -12q-16 0 -28 12t-12 28q0 17 12 29t28 12q17 0 29 -12t12 -29z" />
    <glyph glyph-name="multiply" unicode="&#xd7;" horiz-adv-x="253" 
d="M61 471l65 -65l66 65l26 -25l-66 -66l66 -66l-26 -26l-66 66l-65 -66l-26 26l66 66l-66 66z" />
    <glyph glyph-name="Oslash" unicode="&#xd8;" horiz-adv-x="346" 
d="M311 155q0 -77 -42 -123q-38 -41 -93 -42q-41 -1 -74 21l-5 -20h-26l9 38q-45 46 -45 126v451q0 78 43 123q39 41 95 41q39 0 71 -21l5 20h26l-9 -38q45 -46 45 -125v0v-451zM222 656q-1 29 -15.5 46.5t-33.5 17.5q-20 0 -35 -18.5t-15 -48.5v-439zM222 109v437l-99 -442
q2 -29 16.5 -46.5t33.5 -17.5q20 0 34.5 19t14.5 50z" />
    <glyph glyph-name="Ugrave" unicode="&#xd9;" horiz-adv-x="354" 
d="M339 709q-19 -2 -32 -16.5t-13 -33.5v-497q0 -162 -102 -162q-62 0 -99 41t-37 120l1 498q0 43 -42 49v52h166v-51q-19 -2 -32 -16.5t-13 -33.5l-1 -498q0 -51 6 -71q12 -42 51 -41q30 1 39 43q5 21 5 70v497q0 43 -42 49v52h145v-51zM239 800h-25l-99 141h51z" />
    <glyph glyph-name="Uacute" unicode="&#xda;" horiz-adv-x="354" 
d="M339 709q-19 -2 -32 -16.5t-13 -33.5v-497q0 -162 -102 -162q-62 0 -99 41t-37 120l1 498q0 43 -42 49v52h166v-51q-19 -2 -32 -16.5t-13 -33.5l-1 -498q0 -51 6 -71q12 -42 51 -41q30 1 39 43q5 21 5 70v497q0 43 -42 49v52h145v-51zM249 941l-100 -141h-24l72 141h52z
" />
    <glyph glyph-name="Ucircumflex" unicode="&#xdb;" horiz-adv-x="354" 
d="M339 709q-19 -2 -32 -16.5t-13 -33.5v-497q0 -162 -102 -162q-62 0 -99 41t-37 120l1 498q0 43 -42 49v52h166v-51q-19 -2 -32 -16.5t-13 -33.5l-1 -498q0 -51 6 -71q12 -42 51 -41q30 1 39 43q5 21 5 70v497q0 43 -42 49v52h145v-51zM280 800h-26l-77 79l-77 -79h-25
l102 145z" />
    <glyph glyph-name="Udieresis" unicode="&#xdc;" horiz-adv-x="354" 
d="M339 709q-19 -2 -32 -16.5t-13 -33.5v-497q0 -162 -102 -162q-62 0 -99 41t-37 120l1 498q0 43 -42 49v52h166v-51q-19 -2 -32 -16.5t-13 -33.5l-1 -498q0 -51 6 -71q12 -42 51 -41q30 1 39 43q5 21 5 70v497q0 43 -42 49v52h145v-51zM289 840q0 -16 -12 -28t-29 -12
q-16 0 -28 12t-12 28q0 17 12 29t28 12q17 0 29 -12t12 -29zM156 840q0 -16 -12 -28t-29 -12q-16 0 -28 12t-12 28q0 17 12 29t28 12q17 0 29 -12t12 -29z" />
    <glyph glyph-name="Yacute" unicode="&#xdd;" horiz-adv-x="359" 
d="M344 709q-36 -4 -56 -63l-73 -230v-295q0 -66 36 -70v-51h-170v52q26 3 33 27q5 12 5 47l2 289l-57 228q-15 60 -49 65v52h174v-51q-38 -4 -38 -41q0 -10 3 -22l34 -127l45 131q3 9 3 18q0 35 -36 40v52h144v-51zM249 941l-100 -141h-24l72 141h52z" />
    <glyph glyph-name="Thorn" unicode="&#xde;" horiz-adv-x="371" 
d="M356 384q0 -84 -31 -141q-39 -73 -118 -68q-28 2 -52 17v-92q0 -19 13 -33t32 -16v-51h-165v52q42 6 42 48v560q0 42 -42 48v52h165v-51q-19 -2 -32 -16t-13 -33v-91q16 16 50 16q149 4 151 -201zM274 384q1 149 -68 151q-20 0 -35 -15t-15 -35v-174q0 -33 2 -41
q9 -34 46 -33q68 2 70 147z" />
    <glyph glyph-name="germandbls" unicode="&#xdf;" horiz-adv-x="352" 
d="M317 164q0 -76 -42 -122q-38 -41 -93 -42v0v0v0h-1v53q47 3 47 66v174q0 25 -12 45q-15 24 -40 24h-14v57h14q25 0 40 21q12 18 12 44v172q0 26 -13.5 41.5t-32.5 15.5q-47 0 -47 -50v-562q0 -34 -19 -65q-23 -36 -58 -36h-43v52q42 7 42 50v555q0 46 33.5 74.5
t90.5 28.5q55 0 93 -41q43 -45 43 -121v-69q0 -93 -60 -139q60 -45 60 -138v-88z" />
    <glyph glyph-name="agrave" unicode="&#xe0;" 
d="M299 0h-147v51q19 2 29 16t7 33l-8 57h-71l-7 -57q-6 -45 33 -49v-51h-120v52q37 5 42 48l74 660h43l86 -660q6 -43 39 -48v-52zM174 205l-31 226l-28 -226h59zM219 800h-25l-99 141h51z" />
    <glyph glyph-name="aacute" unicode="&#xe1;" 
d="M299 0h-147v51q19 2 29 16t7 33l-8 57h-71l-7 -57q-6 -45 33 -49v-51h-120v52q37 5 42 48l74 660h43l86 -660q6 -43 39 -48v-52zM174 205l-31 226l-28 -226h59zM219 941l-100 -141h-24l72 141h52z" />
    <glyph glyph-name="acircumflex" unicode="&#xe2;" 
d="M299 0h-147v51q19 2 29 16t7 33l-8 57h-71l-7 -57q-6 -45 33 -49v-51h-120v52q37 5 42 48l74 660h43l86 -660q6 -43 39 -48v-52zM174 205l-31 226l-28 -226h59zM250 800h-26l-77 79l-77 -79h-25l102 145z" />
    <glyph glyph-name="atilde" unicode="&#xe3;" 
d="M299 0h-147v51q19 2 29 16t7 33l-8 57h-71l-7 -57q-6 -45 33 -49v-51h-120v52q37 5 42 48l74 660h43l86 -660q6 -43 39 -48v-52zM174 205l-31 226l-28 -226h59zM263 855q-19 -56 -64 -56q-20 0 -57.5 13.5t-56.5 13.5q-26 0 -31 -23l-19 9q19 54 67 54q19 0 56 -12.5
t55 -12.5q24 0 32 23z" />
    <glyph glyph-name="adieresis" unicode="&#xe4;" 
d="M299 0h-147v51q19 2 29 16t7 33l-8 57h-71l-7 -57q-6 -45 33 -49v-51h-120v52q37 5 42 48l74 660h43l86 -660q6 -43 39 -48v-52zM174 205l-31 226l-28 -226h59zM259 840q0 -16 -12 -28t-29 -12q-16 0 -28 12t-12 28q0 17 12 29t28 12q17 0 29 -12t12 -29zM126 840
q0 -16 -12 -28t-29 -12q-16 0 -28 12t-12 28q0 17 12 29t28 12q17 0 29 -12t12 -29z" />
    <glyph glyph-name="aring" unicode="&#xe5;" 
d="M174 205l-31 226l-28 -226h59zM212 817q0 -42 -40 -57h2l86 -660q6 -43 39 -48v-52h-147v51q19 2 29 16t7 33l-8 57h-71l-7 -57q-6 -45 33 -49v-51h-120v52q37 5 42 48l74 660q-41 14 -41 57q0 25 18 43t43 18t43 -18t18 -43zM188 817q0 15 -11 26t-26 11t-26 -11
t-11 -26t11 -26t26 -11t26 11t11 26z" />
    <glyph glyph-name="ae" unicode="&#xe6;" horiz-adv-x="493" 
d="M458 0h-267v52q42 6 42 48v57h-124l-7 -57q-6 -45 33 -49v-51h-120v52q35 5 42 48l101 660h300v-273h-38q1 102 -2 128q-12 93 -58 94q-20 1 -34.5 -14.5t-14.5 -34.5v-240h18q18 0 16 30l-1 29h47v-188h-42v27q0 31 -19 31h-19v-249q0 -17 13.5 -33t31.5 -16
q45 -2 58 94q7 42 6 128h38v-273zM233 205v455q0 43 -22 43q-19 0 -25 -42l-71 -456h118z" />
    <glyph glyph-name="ccedilla" unicode="&#xe7;" horiz-adv-x="339" 
d="M201 -8l-75 -107h-25l55 106q-57 8 -90 56q-31 45 -31 108v451q0 66 36 113q39 52 102 51q32 -1 63 -18q16 -9 18 7h50v-278h-54l-1 160q0 36 -21 59q-19 20 -45 21q-25 0 -41 -17q-19 -18 -19 -51v-535q0 -69 63 -67q24 0 43.5 18t19.5 45v168h54v-170q0 -48 -29 -80
t-73 -40z" />
    <glyph glyph-name="egrave" unicode="&#xe8;" horiz-adv-x="337" 
d="M302 0h-267v52q42 6 42 48v560q0 42 -42 48v52h267v-273h-38q1 102 -2 128q-12 93 -58 94q-20 1 -34.5 -14.5t-14.5 -34.5v-240h18q18 0 16 30l-1 29h47v-188h-42v27q0 31 -19 31h-19v-249q0 -17 13.5 -33t31.5 -16q45 -2 59 94q6 42 5 128h38v-273zM229 800h-25l-99 141
h51z" />
    <glyph glyph-name="eacute" unicode="&#xe9;" horiz-adv-x="337" 
d="M302 0h-267v52q42 6 42 48v560q0 42 -42 48v52h267v-273h-38q1 102 -2 128q-12 93 -58 94q-20 1 -34.5 -14.5t-14.5 -34.5v-240h18q18 0 16 30l-1 29h47v-188h-42v27q0 31 -19 31h-19v-249q0 -17 13.5 -33t31.5 -16q45 -2 59 94q6 42 5 128h38v-273zM229 941l-100 -141
h-24l72 141h52z" />
    <glyph glyph-name="ecircumflex" unicode="&#xea;" horiz-adv-x="337" 
d="M302 0h-267v52q42 6 42 48v560q0 42 -42 48v52h267v-273h-38q1 102 -2 128q-12 93 -58 94q-20 1 -34.5 -14.5t-14.5 -34.5v-240h18q18 0 16 30l-1 29h47v-188h-42v27q0 31 -19 31h-19v-249q0 -17 13.5 -33t31.5 -16q45 -2 59 94q6 42 5 128h38v-273zM270 800h-26l-77 79
l-77 -79h-25l102 145z" />
    <glyph glyph-name="edieresis" unicode="&#xeb;" horiz-adv-x="337" 
d="M302 0h-267v52q42 6 42 48v560q0 42 -42 48v52h267v-273h-38q1 102 -2 128q-12 93 -58 94q-20 1 -34.5 -14.5t-14.5 -34.5v-240h18q18 0 16 30l-1 29h47v-188h-42v27q0 31 -19 31h-19v-249q0 -17 13.5 -33t31.5 -16q45 -2 59 94q6 42 5 128h38v-273zM279 840
q0 -16 -12 -28t-29 -12q-16 0 -28 12t-12 28q0 17 12 29t28 12q17 0 29 -12t12 -29zM146 840q0 -16 -12 -28t-29 -12q-16 0 -28 12t-12 28q0 17 12 29t28 12q17 0 29 -12t12 -29z" />
    <glyph glyph-name="igrave" unicode="&#xec;" horiz-adv-x="235" 
d="M200 0h-165v52q42 6 42 48v560q0 42 -42 48v52h165v-51q-19 -2 -32 -16t-13 -33v-560q0 -19 13 -33t32 -16v-51zM179 800h-25l-99 141h51z" />
    <glyph glyph-name="iacute" unicode="&#xed;" horiz-adv-x="235" 
d="M200 0h-165v52q42 6 42 48v560q0 42 -42 48v52h165v-51q-19 -2 -32 -16t-13 -33v-560q0 -19 13 -33t32 -16v-51zM179 941l-100 -141h-24l72 141h52z" />
    <glyph glyph-name="icircumflex" unicode="&#xee;" horiz-adv-x="235" 
d="M200 0h-165v52q42 6 42 48v560q0 42 -42 48v52h165v-51q-19 -2 -32 -16t-13 -33v-560q0 -19 13 -33t32 -16v-51zM220 800h-26l-77 79l-77 -79h-25l102 145z" />
    <glyph glyph-name="idieresis" unicode="&#xef;" horiz-adv-x="244" 
d="M210 0h-165v52q42 6 42 48v560q0 42 -42 48v52h165v-51q-19 -2 -32 -16t-13 -33v-560q0 -19 13 -33t32 -16v-51zM229 840q0 -16 -12 -28t-29 -12q-16 0 -28 12t-12 28q0 17 12 29t28 12q17 0 29 -12t12 -29zM96 840q0 -16 -12 -28t-29 -12q-16 0 -28 12t-12 28
q0 17 12 29t28 12q17 0 29 -12t12 -29z" />
    <glyph glyph-name="eth" unicode="&#xf0;" horiz-adv-x="355" 
d="M320 165q0 -67 -35 -113q-39 -52 -105 -52h-165v52q42 6 42 48v245h-42v70h42v245q0 42 -42 48v52h147q72 0 115 -46.5t43 -116.5v-432zM232 120v524q0 30 -15.5 48t-35.5 18q-46 0 -46 -50v-245h47v-70h-47v-245q0 -52 44 -49q21 1 37 19.5t16 49.5z" />
    <glyph glyph-name="ntilde" unicode="&#xf1;" horiz-adv-x="417" 
d="M402 709q-19 -2 -32 -16t-13 -33v-660h-87l-136 586v-486q0 -19 13 -33t32 -16v-51h-144v52q42 6 42 48v560q0 42 -42 48v52h144l121 -444v344q0 42 -42 48v52h144v-51zM333 855q-19 -56 -64 -56q-20 0 -57.5 13.5t-56.5 13.5q-26 0 -31 -23l-19 9q19 54 67 54
q19 0 56 -12.5t55 -12.5q24 0 32 23z" />
    <glyph glyph-name="ograve" unicode="&#xf2;" horiz-adv-x="346" 
d="M311 155q0 -77 -42 -123q-38 -41 -93 -42q-57 -1 -97 40q-44 46 -44 125v451q0 78 43 123q39 41 95 41t94 -41q44 -46 44 -123v0v-451zM222 109v544q0 30 -14.5 48.5t-34.5 18.5t-35 -18.5t-15 -48.5v-544q0 -31 15 -50t35 -19t34.5 19t14.5 50zM239 800h-25l-99 141h51z
" />
    <glyph glyph-name="oacute" unicode="&#xf3;" horiz-adv-x="346" 
d="M311 155q0 -77 -42 -123q-38 -41 -93 -42q-57 -1 -97 40q-44 46 -44 125v451q0 78 43 123q39 41 95 41t94 -41q44 -46 44 -123v0v-451zM222 109v544q0 30 -14.5 48.5t-34.5 18.5t-35 -18.5t-15 -48.5v-544q0 -31 15 -50t35 -19t34.5 19t14.5 50zM229 941l-100 -141h-24
l72 141h52z" />
    <glyph glyph-name="ocircumflex" unicode="&#xf4;" horiz-adv-x="346" 
d="M311 155q0 -77 -42 -123q-38 -41 -93 -42q-57 -1 -97 40q-44 46 -44 125v451q0 78 43 123q39 41 95 41t94 -41q44 -46 44 -123v0v-451zM222 109v544q0 30 -14.5 48.5t-34.5 18.5t-35 -18.5t-15 -48.5v-544q0 -31 15 -50t35 -19t34.5 19t14.5 50zM270 800h-26l-77 79
l-77 -79h-25l102 145z" />
    <glyph glyph-name="otilde" unicode="&#xf5;" horiz-adv-x="346" 
d="M311 155q0 -77 -42 -123q-38 -41 -93 -42q-57 -1 -97 40q-44 46 -44 125v451q0 78 43 123q39 41 95 41t94 -41q44 -46 44 -123v0v-451zM222 109v544q0 30 -14.5 48.5t-34.5 18.5t-35 -18.5t-15 -48.5v-544q0 -31 15 -50t35 -19t34.5 19t14.5 50zM283 855q-19 -56 -64 -56
q-20 0 -57.5 13.5t-56.5 13.5q-26 0 -31 -23l-19 9q19 54 67 54q19 0 56 -12.5t55 -12.5q24 0 32 23z" />
    <glyph glyph-name="odieresis" unicode="&#xf6;" horiz-adv-x="346" 
d="M311 155q0 -77 -42 -123q-38 -41 -93 -42q-57 -1 -97 40q-44 46 -44 125v451q0 78 43 123q39 41 95 41t94 -41q44 -46 44 -123v0v-451zM222 109v544q0 30 -14.5 48.5t-34.5 18.5t-35 -18.5t-15 -48.5v-544q0 -31 15 -50t35 -19t34.5 19t14.5 50zM279 840q0 -16 -12 -28
t-29 -12q-16 0 -28 12t-12 28q0 17 12 29t28 12q17 0 29 -12t12 -29zM146 840q0 -16 -12 -28t-29 -12q-16 0 -28 12t-12 28q0 17 12 29t28 12q17 0 29 -12t12 -29z" />
    <glyph glyph-name="divide" unicode="&#xf7;" horiz-adv-x="292" 
d="M257 362h-222v36h222v-36zM116 471q0 30 30 30t30 -30t-30 -30t-30 30zM116 291q0 30 30 30t30 -30t-30 -30t-30 30z" />
    <glyph glyph-name="oslash" unicode="&#xf8;" horiz-adv-x="346" 
d="M311 155q0 -77 -42 -123q-38 -41 -93 -42q-41 -1 -74 21l-5 -20h-26l9 38q-45 46 -45 126v451q0 78 43 123q39 41 95 41q39 0 71 -21l5 20h26l-9 -38q45 -46 45 -125v0v-451zM222 656q-1 29 -15.5 46.5t-33.5 17.5q-20 0 -35 -18.5t-15 -48.5v-439zM222 109v437l-99 -442
q2 -29 16.5 -46.5t33.5 -17.5q20 0 34.5 19t14.5 50z" />
    <glyph glyph-name="ugrave" unicode="&#xf9;" horiz-adv-x="354" 
d="M339 709q-19 -2 -32 -16.5t-13 -33.5v-497q0 -162 -102 -162q-62 0 -99 41t-37 120l1 498q0 43 -42 49v52h166v-51q-19 -2 -32 -16.5t-13 -33.5l-1 -498q0 -51 6 -71q12 -42 51 -41q30 1 39 43q5 21 5 70v497q0 43 -42 49v52h145v-51zM239 800h-25l-99 141h51z" />
    <glyph glyph-name="uacute" unicode="&#xfa;" horiz-adv-x="354" 
d="M339 709q-19 -2 -32 -16.5t-13 -33.5v-497q0 -162 -102 -162q-62 0 -99 41t-37 120l1 498q0 43 -42 49v52h166v-51q-19 -2 -32 -16.5t-13 -33.5l-1 -498q0 -51 6 -71q12 -42 51 -41q30 1 39 43q5 21 5 70v497q0 43 -42 49v52h145v-51zM249 941l-100 -141h-24l72 141h52z
" />
    <glyph glyph-name="ucircumflex" unicode="&#xfb;" horiz-adv-x="354" 
d="M339 709q-19 -2 -32 -16.5t-13 -33.5v-497q0 -162 -102 -162q-62 0 -99 41t-37 120l1 498q0 43 -42 49v52h166v-51q-19 -2 -32 -16.5t-13 -33.5l-1 -498q0 -51 6 -71q12 -42 51 -41q30 1 39 43q5 21 5 70v497q0 43 -42 49v52h145v-51zM280 800h-26l-77 79l-77 -79h-25
l102 145z" />
    <glyph glyph-name="udieresis" unicode="&#xfc;" horiz-adv-x="354" 
d="M339 709q-19 -2 -32 -16.5t-13 -33.5v-497q0 -162 -102 -162q-62 0 -99 41t-37 120l1 498q0 43 -42 49v52h166v-51q-19 -2 -32 -16.5t-13 -33.5l-1 -498q0 -51 6 -71q12 -42 51 -41q30 1 39 43q5 21 5 70v497q0 43 -42 49v52h145v-51zM289 840q0 -16 -12 -28t-29 -12
q-16 0 -28 12t-12 28q0 17 12 29t28 12q17 0 29 -12t12 -29zM156 840q0 -16 -12 -28t-29 -12q-16 0 -28 12t-12 28q0 17 12 29t28 12q17 0 29 -12t12 -29z" />
    <glyph glyph-name="yacute" unicode="&#xfd;" horiz-adv-x="359" 
d="M344 709q-36 -4 -56 -63l-73 -230v-295q0 -66 36 -70v-51h-170v52q26 3 33 27q5 12 5 47l2 289l-57 228q-15 60 -49 65v52h174v-51q-38 -4 -38 -41q0 -10 3 -22l34 -127l45 131q3 9 3 18q0 35 -36 40v52h144v-51zM249 941l-100 -141h-24l72 141h52z" />
    <glyph glyph-name="thorn" unicode="&#xfe;" horiz-adv-x="371" 
d="M356 384q0 -84 -31 -141q-39 -73 -118 -68q-28 2 -52 17v-92q0 -19 13 -33t32 -16v-51h-165v52q42 6 42 48v560q0 42 -42 48v52h165v-51q-19 -2 -32 -16t-13 -33v-91q16 16 50 16q149 4 151 -201zM274 384q1 149 -68 151q-20 0 -35 -15t-15 -35v-174q0 -33 2 -41
q9 -34 46 -33q68 2 70 147z" />
    <glyph glyph-name="ydieresis" unicode="&#xff;" horiz-adv-x="359" 
d="M344 709q-36 -4 -56 -63l-73 -230v-295q0 -66 36 -70v-51h-170v52q26 3 33 27q5 12 5 47l2 289l-57 228q-15 60 -49 65v52h174v-51q-38 -4 -38 -41q0 -10 3 -22l34 -127l45 131q3 9 3 18q0 35 -36 40v52h144v-51zM289 840q0 -16 -12 -28t-29 -12q-16 0 -28 12t-12 28
q0 17 12 29t28 12q17 0 29 -12t12 -29zM156 840q0 -16 -12 -28t-29 -12q-16 0 -28 12t-12 28q0 17 12 29t28 12q17 0 29 -12t12 -29z" />
    <glyph glyph-name="Lslash" unicode="&#x141;" horiz-adv-x="317" 
d="M302 0h-267v52q42 6 42 48v236l-42 -10v70l42 10v254q0 42 -42 48v52h165v-51q-19 -2 -32 -16t-13 -33v-237l47 11v-70l-47 -11v-253q0 -19 13 -36t31 -15q66 7 65 224h38v-273z" />
    <glyph glyph-name="lslash" unicode="&#x142;" horiz-adv-x="317" 
d="M302 0h-267v52q42 6 42 48v236l-42 -10v70l42 10v254q0 42 -42 48v52h165v-51q-19 -2 -32 -16t-13 -33v-237l47 11v-70l-47 -11v-253q0 -19 13 -36t31 -15q66 7 65 224h38v-273z" />
    <glyph glyph-name="OE" unicode="&#x152;" horiz-adv-x="497" 
d="M225 1q-25 -11 -49 -11q-67 0 -105 50q-36 46 -36 115v451q0 67 35 113q38 51 103 51q27 0 52 -11v1h237v-273h-38l1 58q3 164 -61 164q-20 0 -34.5 -15t-14.5 -34v-240h18q15 0 17 24q0 4 -2 35h47v-188h-42q0 41 -2 44q-5 14 -36 14v-249q0 -17 14 -33t31 -16
q66 0 64 222h38v-273h-237v1zM222 109v544q0 25 -12 44q-14 23 -37 23q-24 0 -38 -23q-12 -19 -12 -44v-544q0 -25 12 -45q14 -24 38 -24t38 24q11 20 11 45z" />
    <glyph glyph-name="oe" unicode="&#x153;" horiz-adv-x="497" 
d="M225 1q-25 -11 -49 -11q-67 0 -105 50q-36 46 -36 115v451q0 67 35 113q38 51 103 51q27 0 52 -11v1h237v-273h-38l1 58q3 164 -61 164q-20 0 -34.5 -15t-14.5 -34v-240h18q15 0 17 24q0 4 -2 35h47v-188h-42q0 41 -2 44q-5 14 -36 14v-249q0 -17 14 -33t31 -16
q66 0 64 222h38v-273h-237v1zM222 109v544q0 25 -12 44q-14 23 -37 23q-24 0 -38 -23q-12 -19 -12 -44v-544q0 -25 12 -45q14 -24 38 -24t38 24q11 20 11 45z" />
    <glyph glyph-name="Scaron" unicode="&#x160;" horiz-adv-x="341" 
d="M286 493h-49v108q0 98 -65 111q-36 -3 -50 -52q-11 -36 -8 -80q5 -67 76 -163q56 -76 80 -124q37 -73 37 -137q0 -51 -23 -100q-27 -58 -88 -67q-33 -4 -61 8q-12 6 -18 6q-11 0 -14 -13h-47v276h45v-103q0 -124 70 -126q50 -1 58 76q10 103 -113 270q-76 102 -80 194
q-3 64 30 120q39 65 102 66q9 1 23 -7.5t22 -8.5q12 0 25 11t22 11q26 0 26 -36v-240zM65 945h25l78 -79l76 79h26l-102 -145z" />
    <glyph glyph-name="scaron" unicode="&#x161;" horiz-adv-x="344" 
d="M288 493h-49v108q0 98 -65 111q-36 -3 -50 -52q-11 -36 -8 -80q5 -67 76 -163q56 -76 80 -124q37 -73 37 -137q0 -51 -23 -100q-27 -58 -88 -67q-33 -4 -61 8q-12 6 -18 6q-11 0 -14 -13h-47v276h45v-103q0 -124 70 -126q50 -1 58 76q10 103 -113 270q-76 102 -80 194
q-3 64 30 120q39 65 102 66q9 1 23 -7.5t22 -8.5q12 0 25 11t22 11q26 0 26 -36v-240zM68 945h25l78 -79l76 79h26l-102 -145z" />
    <glyph glyph-name="Ydieresis" unicode="&#x178;" horiz-adv-x="359" 
d="M344 709q-36 -4 -56 -63l-73 -230v-295q0 -66 36 -70v-51h-170v52q26 3 33 27q5 12 5 47l2 289l-57 228q-15 60 -49 65v52h174v-51q-38 -4 -38 -41q0 -10 3 -22l34 -127l45 131q3 9 3 18q0 35 -36 40v52h144v-51zM289 840q0 -16 -12 -28t-29 -12q-16 0 -28 12t-12 28
q0 17 12 29t28 12q17 0 29 -12t12 -29zM156 840q0 -16 -12 -28t-29 -12q-16 0 -28 12t-12 28q0 17 12 29t28 12q17 0 29 -12t12 -29z" />
    <glyph glyph-name="Zcaron" unicode="&#x17d;" horiz-adv-x="383" 
d="M348 760l-188 -635q-5 -14 -5 -28q0 -38 32 -38q61 0 90 83q20 57 21 131h41v-273h-304l191 644q2 9 2 18q0 40 -35 40q-7 0 -16 -3q-49 -15 -73 -83q-19 -55 -19 -129h-41v273h304zM95 945h25l78 -79l76 79h26l-102 -145z" />
    <glyph glyph-name="zcaron" unicode="&#x17e;" horiz-adv-x="383" 
d="M348 760l-188 -635q-5 -14 -5 -28q0 -38 32 -38q61 0 90 83q20 57 21 131h41v-273h-304l191 644q2 9 2 18q0 40 -35 40q-7 0 -16 -3q-49 -15 -73 -83q-19 -55 -19 -129h-41v273h304zM95 945h25l78 -79l76 79h26l-102 -145z" />
    <glyph glyph-name="circumflex" unicode="&#x2c6;" horiz-adv-x="275" 
d="M240 800h-26l-77 79l-77 -79h-25l102 145z" />
    <glyph glyph-name="caron" unicode="&#x2c7;" horiz-adv-x="275" 
d="M35 945h25l78 -79l76 79h26l-102 -145z" />
    <glyph glyph-name="dotaccent" unicode="&#x2d9;" horiz-adv-x="151" 
d="M116 840q0 -16 -12 -28t-29 -12q-16 0 -28 12t-12 28q0 17 12 29t28 12q17 0 29 -12t12 -29z" />
    <glyph glyph-name="ring" unicode="&#x2da;" horiz-adv-x="192" 
d="M157 817q0 -25 -18 -43t-43 -18t-43 18t-18 43t18 43t43 18t43 -18t18 -43zM133 817q0 15 -11 26t-26 11t-26 -11t-11 -26t11 -26t26 -11t26 11t11 26z" />
    <glyph glyph-name="tilde" unicode="&#x2dc;" horiz-adv-x="298" 
d="M263 855q-19 -56 -64 -56q-20 0 -57.5 13.5t-56.5 13.5q-26 0 -31 -23l-19 9q19 54 67 54q19 0 56 -12.5t55 -12.5q24 0 32 23z" />
    <glyph glyph-name="endash" unicode="&#x2013;" horiz-adv-x="372" 
d="M357 342h-342v76h342v-76z" />
    <glyph glyph-name="emdash" unicode="&#x2014;" horiz-adv-x="422" 
d="M407 342h-392v76h392v-76z" />
    <glyph glyph-name="quoteleft" unicode="&#x2018;" horiz-adv-x="172" 
d="M137 624q0 -28 -15 -48t-36 -20t-36 20t-15 48q0 43 21 80.5t58 55.5q-27 -30 -29 -67h1q21 0 36 -20t15 -49z" />
    <glyph glyph-name="quoteright" unicode="&#x2019;" horiz-adv-x="172" 
d="M137 691q0 -42 -20.5 -80t-58.5 -55q27 29 30 67h-2q-21 0 -36 20t-15 48q0 29 15 49t36 20t36 -20t15 -49z" />
    <glyph glyph-name="quotesinglbase" unicode="&#x201a;" horiz-adv-x="172" 
d="M137 69q0 -43 -20 -79q-21 -39 -59 -57q27 30 30 67h-2q-21 0 -36 20t-15 49q0 28 15 48t36 20t36 -20t15 -48z" />
    <glyph glyph-name="quotereversed" unicode="&#x201b;" horiz-adv-x="172" 
d="M137 691q0 -28 -15 -48t-36 -20h-1q2 -38 29 -67q-37 17 -58 55t-21 80q0 29 15 49t36 20t36 -20t15 -49z" />
    <glyph glyph-name="quotedblleft" unicode="&#x201c;" horiz-adv-x="292" 
d="M257 624q0 -28 -15 -48t-36 -20t-36 20t-15 48q0 43 21 80.5t58 55.5q-27 -30 -29 -67h1q21 0 36 -20t15 -49zM137 624q0 -28 -15 -48t-36 -20t-36 20t-15 48q0 43 21 80.5t58 55.5q-27 -30 -29 -67h1q21 0 36 -20t15 -49z" />
    <glyph glyph-name="quotedblright" unicode="&#x201d;" horiz-adv-x="292" 
d="M137 691q0 -42 -20.5 -80t-58.5 -55q27 29 30 67h-2q-21 0 -36 20t-15 48q0 29 15 49t36 20t36 -20t15 -49zM257 691q0 -42 -20.5 -80t-58.5 -55q27 29 30 67h-2q-21 0 -36 20t-15 48q0 29 15 49t36 20t36 -20t15 -49z" />
    <glyph glyph-name="quotedblbase" unicode="&#x201e;" horiz-adv-x="292" 
d="M137 69q0 -43 -20 -79q-21 -39 -59 -57q27 30 30 67h-2q-21 0 -36 20t-15 49q0 28 15 48t36 20t36 -20t15 -48zM257 69q0 -43 -20 -79q-21 -39 -59 -57q27 30 30 67h-2q-21 0 -36 20t-15 49q0 28 15 48t36 20t36 -20t15 -48z" />
    <glyph glyph-name="bullet" unicode="&#x2022;" horiz-adv-x="315" 
d="M35 379q0 50 36 86t87 36q50 0 86 -36t36 -86q0 -51 -36 -87t-86 -36q-51 0 -87 36t-36 87z" />
    <glyph glyph-name="ellipsis" unicode="&#x2026;" horiz-adv-x="772" 
d="M137 69q0 -29 -15 -49t-36 -20t-36 20t-15 49q0 28 15 48t36 20t36 -20t15 -48zM737 69q0 -29 -15 -49t-36 -20t-36 20t-15 49q0 28 15 48t36 20t36 -20t15 -48zM437 69q0 -29 -15 -49t-36 -20t-36 20t-15 49q0 28 15 48t36 20t36 -20t15 -48z" />
    <glyph glyph-name="perthousand" unicode="&#x2030;" horiz-adv-x="695" 
d="M188 429q0 -43 -22 -67t-53 -25t-53 22q-25 26 -25 70v240q0 43 24 68q21 23 53 23q31 0 53.5 -24t22.5 -67v0v-240zM381 760l-234 -760h-26l235 760h25zM470 92q0 -43 -22 -67t-53 -25t-53 22q-25 26 -25 70v240q0 43 24 68q21 23 53 23q31 0 53.5 -24t22.5 -67v0v-240z
M139 403v292q0 37 -27 37q-28 0 -28 -37v-292q0 -38 28 -38q27 0 27 38zM421 66v292q0 37 -27 37q-28 0 -28 -37v-292q0 -38 28 -38q27 0 27 38zM660 92q0 -43 -22 -67t-53 -25t-53 22q-25 26 -25 70v240q0 43 24 68q21 23 53 23q31 0 53.5 -24t22.5 -67v0v-240zM611 66v292
q0 37 -27 37q-28 0 -28 -37v-292q0 -38 28 -38q27 0 27 38z" />
    <glyph glyph-name="Euro" unicode="&#x20ac;" horiz-adv-x="377" 
d="M342 606h-53l-2 25q-2 37 -21 58t-45 22q-25 0 -41 -17q-19 -18 -19 -51v-196h152l-15 -35h-137v-46h117l-14 -35h-103v-203q0 -69 63 -67q24 0 43.5 18t19.5 45v58h54l1 -60q0 -55 -37.5 -88t-88.5 -34q-66 -1 -106 49q-37 47 -37 116v166l-58 1l15 35l43 -1v46h-58
l15 35h43v149q0 66 36 113q39 52 102 51q32 -1 63 -18q16 -9 18 7h50v-143z" />
    <glyph glyph-name="afii61352" unicode="&#x2116;" horiz-adv-x="726" 
d="M691 328q0 -77 -42 -123q-37 -41 -92 -42q-57 -1 -97 40q-44 46 -44 125v268q0 78 43 123q38 41 94 41t95 -41q43 -46 43 -123v0v-268zM685 78h-263v48h263v-48zM401 707q-19 -1 -32 -15.5t-13 -33.5v-658h-86l-136 585v-485q0 -19 13 -33t32 -16v-51h-144v51q42 7 42 49
v558q0 42 -42 49v51h144l120 -443v343q0 42 -41 49v51h143v-51zM603 282v361q0 30 -15 48.5t-35 18.5t-34.5 -18.5t-14.5 -48.5v-361q0 -31 14.5 -50t34.5 -19t35 19t15 50z" />
    <glyph glyph-name="trademark" unicode="&#x2122;" horiz-adv-x="387" 
d="M352 460h-65v20q17 3 17 20v171l-31 -211h-19l-29 211v-171q0 -18 17 -20v-20h-53v20q17 3 17 20v220q0 17 -17 20v20h54l26 -180l24 180h56v-20q-14 -2 -14 -20v-220q0 -18 17 -20v-20zM162 652h-18l-1 68q0 16 -14 17q-15 0 -15 -17v-220q0 -18 18 -20v-20h-66v20
q17 2 17 20v220q0 17 -14 17q-14 1 -14 -15l-1 -70h-19v108h127v-108z" />
    <glyph glyph-name="NULL" horiz-adv-x="0" 
 />
  </font>
</defs>
</svg>
